<svg width="83" height="96" viewBox="0 0 83 96" fill="none" xmlns="http://www.w3.org/2000/svg">
<rect width="83" height="96" rx="10" fill="black"/>
<rect y="2" width="78" height="94" rx="10" fill="url(#paint0_linear_49_31)"/>
<circle cx="17" cy="12" r="4.5" fill="#CBE0FF" stroke="black"/>
<circle cx="39" cy="12" r="4.5" fill="#CBE0FF" stroke="black"/>
<circle cx="61" cy="12" r="4.5" fill="#CBE0FF" stroke="black"/>
<path d="M27.8934 42H23.2854C23.1334 42 23.0214 41.968 22.9494 41.904C22.8854 41.832 22.8534 41.72 22.8534 41.568V33.792C22.8534 33.64 22.8854 33.532 22.9494 33.468C23.0214 33.396 23.1334 33.36 23.2854 33.36H27.1134C27.8974 33.36 28.4774 33.512 28.8534 33.816C29.2294 34.112 29.4174 34.572 29.4174 35.196V35.772C29.4174 36.108 29.3574 36.384 29.2374 36.6C29.1254 36.808 28.9494 36.964 28.7094 37.068C29.2214 37.116 29.6014 37.292 29.8494 37.596C30.0974 37.9 30.2214 38.344 30.2214 38.928V40.032C30.2214 40.704 30.0294 41.2 29.6454 41.52C29.2694 41.84 28.6854 42 27.8934 42ZM25.5534 35.4V36.696H26.5734C26.7254 36.696 26.8374 36.656 26.9094 36.576C26.9894 36.496 27.0294 36.376 27.0294 36.216V35.88C27.0294 35.72 26.9894 35.6 26.9094 35.52C26.8374 35.44 26.7254 35.4 26.5734 35.4H25.5534ZM25.5534 38.544V39.96H27.1134C27.2654 39.96 27.3774 39.92 27.4494 39.84C27.5294 39.76 27.5694 39.64 27.5694 39.48V39.012C27.5694 38.852 27.5294 38.736 27.4494 38.664C27.3774 38.584 27.2654 38.544 27.1134 38.544H25.5534ZM34.6807 35.88L34.1167 37.704H36.0007L35.4367 35.88C35.4047 35.808 35.3687 35.756 35.3287 35.724C35.2967 35.692 35.2567 35.676 35.2087 35.676H34.9087C34.8607 35.676 34.8167 35.692 34.7767 35.724C34.7447 35.756 34.7127 35.808 34.6807 35.88ZM33.9967 41.568C33.9967 41.72 33.9607 41.832 33.8887 41.904C33.8247 41.968 33.7167 42 33.5647 42H31.8007C31.6487 42 31.5367 41.968 31.4647 41.904C31.4007 41.832 31.3687 41.72 31.3687 41.568V38.4C31.3687 38.16 31.4047 37.884 31.4767 37.572C31.5567 37.26 31.6767 36.896 31.8367 36.48L32.8807 33.756C32.9287 33.62 33.0007 33.52 33.0967 33.456C33.2007 33.392 33.3327 33.36 33.4927 33.36H36.7207C36.8727 33.36 36.9967 33.392 37.0927 33.456C37.1967 33.52 37.2727 33.62 37.3207 33.756L38.3647 36.48C38.5247 36.896 38.6407 37.26 38.7127 37.572C38.7927 37.884 38.8327 38.16 38.8327 38.4V41.568C38.8327 41.72 38.7967 41.832 38.7247 41.904C38.6607 41.968 38.5527 42 38.4007 42H36.5887C36.4287 42 36.3087 41.968 36.2287 41.904C36.1567 41.832 36.1207 41.72 36.1207 41.568V39.888H33.9967V41.568ZM46.0623 42H43.1343C42.1343 42 41.3903 41.8 40.9023 41.4C40.4223 41 40.1823 40.384 40.1823 39.552V35.82C40.1823 34.988 40.4223 34.372 40.9023 33.972C41.3903 33.564 42.1343 33.36 43.1343 33.36H46.0623C46.2143 33.36 46.3223 33.396 46.3863 33.468C46.4583 33.532 46.4943 33.64 46.4943 33.792V35.244C46.4943 35.396 46.4583 35.508 46.3863 35.58C46.3223 35.644 46.2143 35.676 46.0623 35.676H43.6503C43.4023 35.676 43.2183 35.728 43.0983 35.832C42.9783 35.928 42.9183 36.076 42.9183 36.276V39.132C42.9183 39.332 42.9783 39.48 43.0983 39.576C43.2183 39.664 43.4023 39.708 43.6503 39.708H46.0623C46.2143 39.708 46.3223 39.744 46.3863 39.816C46.4583 39.88 46.4943 39.988 46.4943 40.14V41.568C46.4943 41.72 46.4583 41.832 46.3863 41.904C46.3223 41.968 46.2143 42 46.0623 42ZM50.1415 42H48.2815C48.1295 42 48.0175 41.968 47.9455 41.904C47.8815 41.832 47.8495 41.72 47.8495 41.568V33.792C47.8495 33.64 47.8815 33.532 47.9455 33.468C48.0175 33.396 48.1295 33.36 48.2815 33.36H50.1415C50.2935 33.36 50.4015 33.396 50.4655 33.468C50.5375 33.532 50.5735 33.64 50.5735 33.792V36.552H51.0535L52.2895 33.756C52.3455 33.612 52.4215 33.512 52.5175 33.456C52.6135 33.392 52.7375 33.36 52.8895 33.36H54.7375C54.8735 33.36 54.9655 33.396 55.0135 33.468C55.0615 33.532 55.0575 33.628 55.0015 33.756L53.7775 36.552C54.2255 36.576 54.5815 36.736 54.8455 37.032C55.1175 37.32 55.2535 37.704 55.2535 38.184V41.568C55.2535 41.72 55.2175 41.832 55.1455 41.904C55.0815 41.968 54.9735 42 54.8215 42H52.9735C52.8215 42 52.7095 41.968 52.6375 41.904C52.5735 41.832 52.5415 41.72 52.5415 41.568V39.228C52.5415 39.1 52.5095 39 52.4455 38.928C52.3815 38.856 52.2855 38.82 52.1575 38.82H50.5735V41.568C50.5735 41.72 50.5375 41.832 50.4655 41.904C50.4015 41.968 50.2935 42 50.1415 42Z" fill="#FF3541"/>
<path d="M22.9494 41.904L22.202 42.5684L22.2411 42.6123L22.285 42.6514L22.9494 41.904ZM22.9494 33.468L22.2423 32.7609L22.2423 32.7609L22.9494 33.468ZM28.8534 33.816L28.2246 34.5937L28.2348 34.6017L28.8534 33.816ZM29.2374 36.6L28.3632 36.1143L28.3569 36.1259L29.2374 36.6ZM28.7094 37.068L28.3118 36.1504L28.6161 38.0636L28.7094 37.068ZM29.8494 37.596L29.0745 38.2281L29.0745 38.2281L29.8494 37.596ZM29.6454 41.52L29.0052 40.7517L28.9973 40.7585L29.6454 41.52ZM25.5534 35.4V34.4H24.5534V35.4H25.5534ZM25.5534 36.696H24.5534V37.696H25.5534V36.696ZM26.9094 36.576L26.2023 35.8689L26.1837 35.8875L26.1661 35.907L26.9094 36.576ZM26.9094 35.52L26.1661 36.189L26.1837 36.2085L26.2023 36.2271L26.9094 35.52ZM25.5534 38.544V37.544H24.5534V38.544H25.5534ZM25.5534 39.96H24.5534V40.96H25.5534V39.96ZM27.4494 39.84L26.7423 39.1329L26.7237 39.1515L26.7061 39.171L27.4494 39.84ZM27.4494 38.664L26.7061 39.333L26.7413 39.3721L26.7804 39.4073L27.4494 38.664ZM27.8934 41H23.2854V43H27.8934V41ZM23.2854 41C23.2757 41 23.3064 40.9986 23.3621 41.0145C23.4207 41.0312 23.5166 41.0702 23.6138 41.1566L22.285 42.6514C22.6205 42.9496 23.0232 43 23.2854 43V41ZM23.6968 41.2396C23.7832 41.3368 23.8222 41.4327 23.8389 41.4913C23.8548 41.547 23.8534 41.5777 23.8534 41.568H21.8534C21.8534 41.8302 21.9038 42.2329 22.202 42.5684L23.6968 41.2396ZM23.8534 41.568V33.792H21.8534V41.568H23.8534ZM23.8534 33.792C23.8534 33.781 23.8552 33.8171 23.8362 33.8811C23.8162 33.9484 23.7678 34.0638 23.6565 34.1751L22.2423 32.7609C21.8976 33.1055 21.8534 33.5446 21.8534 33.792H23.8534ZM23.6565 34.1751C23.5639 34.2677 23.4651 34.316 23.3934 34.339C23.3589 34.3501 23.3315 34.3552 23.314 34.3576C23.2965 34.36 23.2864 34.36 23.2854 34.36V32.36C22.9976 32.36 22.5769 32.4263 22.2423 32.7609L23.6565 34.1751ZM23.2854 34.36H27.1134V32.36H23.2854V34.36ZM27.1134 34.36C27.8007 34.36 28.1076 34.499 28.2247 34.5936L29.4821 33.0384C28.8471 32.525 27.9941 32.36 27.1134 32.36V34.36ZM28.2348 34.6017C28.3004 34.6534 28.4174 34.7775 28.4174 35.196H30.4174C30.4174 34.3665 30.1583 33.5706 29.4719 33.0303L28.2348 34.6017ZM28.4174 35.196V35.772H30.4174V35.196H28.4174ZM28.4174 35.772C28.4174 35.9966 28.3763 36.0908 28.3632 36.1144L30.1115 37.0856C30.3385 36.6772 30.4174 36.2194 30.4174 35.772H28.4174ZM28.3569 36.1259C28.3562 36.1273 28.3562 36.127 28.3572 36.1258C28.3581 36.1246 28.3587 36.1241 28.3581 36.1247C28.3575 36.1252 28.3456 36.1358 28.3118 36.1504L29.107 37.9856C29.5298 37.8024 29.8878 37.5014 30.1179 37.0741L28.3569 36.1259ZM28.6161 38.0636C28.9477 38.0947 29.0438 38.1904 29.0745 38.2281L30.6243 36.9639C30.159 36.3936 29.4951 36.1373 28.8027 36.0724L28.6161 38.0636ZM29.0745 38.2281C29.1206 38.2846 29.2214 38.4659 29.2214 38.928H31.2214C31.2214 38.2221 31.0742 37.5154 30.6243 36.9639L29.0745 38.2281ZM29.2214 38.928V40.032H31.2214V38.928H29.2214ZM29.2214 40.032C29.2214 40.5157 29.0893 40.6817 29.0052 40.7518L30.2856 42.2882C30.9695 41.7183 31.2214 40.8923 31.2214 40.032H29.2214ZM28.9973 40.7585C28.8835 40.8553 28.5827 41 27.8934 41V43C28.7881 43 29.6553 42.8247 30.2935 42.2815L28.9973 40.7585ZM24.5534 35.4V36.696H26.5534V35.4H24.5534ZM25.5534 37.696H26.5734V35.696H25.5534V37.696ZM26.5734 37.696C26.8887 37.696 27.3233 37.611 27.6527 37.245L26.1661 35.907C26.3515 35.701 26.5621 35.696 26.5734 35.696V37.696ZM27.6165 37.2831C27.9502 36.9494 28.0294 36.5301 28.0294 36.216H26.0294C26.0294 36.2157 26.0291 36.1746 26.0507 36.1098C26.0739 36.0401 26.1201 35.9511 26.2023 35.8689L27.6165 37.2831ZM28.0294 36.216V35.88H26.0294V36.216H28.0294ZM28.0294 35.88C28.0294 35.5659 27.9502 35.1466 27.6165 34.8129L26.2023 36.2271C26.1201 36.1449 26.0739 36.0559 26.0507 35.9862C26.0291 35.9214 26.0294 35.8803 26.0294 35.88H28.0294ZM27.6527 34.851C27.3233 34.485 26.8887 34.4 26.5734 34.4V36.4C26.5621 36.4 26.3515 36.395 26.1661 36.189L27.6527 34.851ZM26.5734 34.4H25.5534V36.4H26.5734V34.4ZM24.5534 38.544V39.96H26.5534V38.544H24.5534ZM25.5534 40.96H27.1134V38.96H25.5534V40.96ZM27.1134 40.96C27.4287 40.96 27.8633 40.875 28.1927 40.509L26.7061 39.171C26.8915 38.965 27.1021 38.96 27.1134 38.96V40.96ZM28.1565 40.5471C28.4902 40.2134 28.5694 39.7941 28.5694 39.48H26.5694C26.5694 39.4797 26.5691 39.4386 26.5907 39.3738C26.6139 39.3041 26.6601 39.2151 26.7423 39.1329L28.1565 40.5471ZM28.5694 39.48V39.012H26.5694V39.48H28.5694ZM28.5694 39.012C28.5694 38.7076 28.4941 38.2588 28.1184 37.9207L26.7804 39.4073C26.6777 39.3148 26.6214 39.2105 26.594 39.131C26.581 39.0933 26.575 39.063 26.5722 39.0437C26.5694 39.0244 26.5694 39.0132 26.5694 39.012H28.5694ZM28.1927 37.995C27.8633 37.629 27.4287 37.544 27.1134 37.544V39.544C27.1021 39.544 26.8915 39.539 26.7061 39.333L28.1927 37.995ZM27.1134 37.544H25.5534V39.544H27.1134V37.544ZM34.6807 35.88L33.7669 35.4739L33.7428 35.528L33.7253 35.5846L34.6807 35.88ZM34.1167 37.704L33.1613 37.4086L32.7608 38.704H34.1167V37.704ZM36.0007 37.704V38.704H37.3566L36.9561 37.4086L36.0007 37.704ZM35.4367 35.88L36.3921 35.5846L36.3746 35.528L36.3505 35.4739L35.4367 35.88ZM35.3287 35.724L34.6216 36.4311L34.6608 36.4703L34.704 36.5049L35.3287 35.724ZM34.7767 35.724L34.152 34.9431L34.1088 34.9777L34.0696 35.0169L34.7767 35.724ZM33.8887 41.904L33.1816 41.1969L33.1816 41.1969L33.8887 41.904ZM31.4647 41.904L30.7173 42.5684L30.7564 42.6123L30.8003 42.6514L31.4647 41.904ZM31.4767 37.572L30.508 37.3236L30.505 37.3353L30.5023 37.3471L31.4767 37.572ZM31.8367 36.48L32.77 36.839L32.7705 36.8379L31.8367 36.48ZM32.8807 33.756L33.8145 34.1139L33.8193 34.1014L33.8237 34.0888L32.8807 33.756ZM33.0967 33.456L32.5726 32.6043L32.5571 32.6139L32.542 32.6239L33.0967 33.456ZM37.0927 33.456L36.538 34.288L36.5531 34.2981L36.5686 34.3077L37.0927 33.456ZM37.3207 33.756L36.3777 34.0888L36.3822 34.1014L36.3869 34.1139L37.3207 33.756ZM38.3647 36.48L37.4309 36.8379L37.4314 36.839L38.3647 36.48ZM38.7127 37.572L37.7383 37.7969L37.741 37.8087L37.744 37.8204L38.7127 37.572ZM38.7247 41.904L39.4318 42.6111L39.4318 42.6111L38.7247 41.904ZM36.2287 41.904L35.5216 42.6111L35.5608 42.6503L35.604 42.6849L36.2287 41.904ZM36.1207 39.888H37.1207V38.888H36.1207V39.888ZM33.9967 39.888V38.888H32.9967V39.888H33.9967ZM33.7253 35.5846L33.1613 37.4086L35.0721 37.9994L35.6361 36.1754L33.7253 35.5846ZM34.1167 38.704H36.0007V36.704H34.1167V38.704ZM36.9561 37.4086L36.3921 35.5846L34.4813 36.1754L35.0453 37.9994L36.9561 37.4086ZM36.3505 35.4739C36.2853 35.3271 36.1678 35.1146 35.9534 34.9431L34.704 36.5049C34.6329 36.448 34.5883 36.3921 34.5635 36.3562C34.5385 36.3201 34.5264 36.294 34.5229 36.2861L36.3505 35.4739ZM36.0358 35.0169C35.804 34.7851 35.5041 34.676 35.2087 34.676V36.676C35.12 36.676 35.0142 36.6608 34.9033 36.6165C34.7913 36.5717 34.6964 36.5059 34.6216 36.4311L36.0358 35.0169ZM35.2087 34.676H34.9087V36.676H35.2087V34.676ZM34.9087 34.676C34.6178 34.676 34.3565 34.7795 34.152 34.9431L35.4014 36.5049C35.2769 36.6045 35.1036 36.676 34.9087 36.676V34.676ZM34.0696 35.0169C33.9092 35.1773 33.8174 35.3602 33.7669 35.4739L35.5945 36.2861C35.5973 36.2798 35.5932 36.2902 35.5804 36.3111C35.5687 36.3301 35.5383 36.3766 35.4838 36.4311L34.0696 35.0169ZM32.9967 41.568C32.9967 41.567 32.9967 41.5569 32.9991 41.5394C33.0015 41.5219 33.0066 41.4945 33.0177 41.46C33.0407 41.3883 33.089 41.2895 33.1816 41.1969L34.5958 42.6111C34.9304 42.2765 34.9967 41.8558 34.9967 41.568H32.9967ZM33.1816 41.1969C33.2929 41.0856 33.4083 41.0371 33.4756 41.0172C33.5396 40.9982 33.5757 41 33.5647 41V43C33.8121 43 34.2512 42.9558 34.5958 42.6111L33.1816 41.1969ZM33.5647 41H31.8007V43H33.5647V41ZM31.8007 41C31.791 41 31.8217 40.9986 31.8774 41.0145C31.936 41.0312 32.0319 41.0702 32.1291 41.1566L30.8003 42.6514C31.1358 42.9496 31.5385 43 31.8007 43V41ZM32.2121 41.2396C32.2985 41.3368 32.3375 41.4327 32.3542 41.4913C32.3702 41.547 32.3687 41.5777 32.3687 41.568H30.3687C30.3687 41.8302 30.4191 42.2329 30.7173 42.5684L32.2121 41.2396ZM32.3687 41.568V38.4H30.3687V41.568H32.3687ZM32.3687 38.4C32.3687 38.256 32.3908 38.058 32.4511 37.7969L30.5023 37.3471C30.4186 37.71 30.3687 38.064 30.3687 38.4H32.3687ZM32.4454 37.8204C32.5129 37.557 32.6191 37.2314 32.77 36.839L30.9034 36.121C30.7343 36.5606 30.6005 36.963 30.508 37.3236L32.4454 37.8204ZM32.7705 36.8379L33.8145 34.1139L31.9469 33.3981L30.9029 36.1221L32.7705 36.8379ZM33.8237 34.0888C33.818 34.1051 33.7763 34.2048 33.6514 34.2881L32.542 32.6239C32.2251 32.8352 32.0395 33.1349 31.9377 33.4232L33.8237 34.0888ZM33.6208 34.3077C33.5254 34.3664 33.4616 34.36 33.4927 34.36V32.36C33.2038 32.36 32.876 32.4176 32.5726 32.6043L33.6208 34.3077ZM33.4927 34.36H36.7207V32.36H33.4927V34.36ZM36.7207 34.36C36.737 34.36 36.651 34.3634 36.538 34.288L37.6474 32.624C37.3424 32.4206 37.0085 32.36 36.7207 32.36V34.36ZM36.5686 34.3077C36.5125 34.2731 36.4661 34.2295 36.4315 34.1841C36.3983 34.1403 36.3832 34.1044 36.3777 34.0888L38.2637 33.4232C38.1539 33.1122 37.9496 32.8091 37.6168 32.6043L36.5686 34.3077ZM36.3869 34.1139L37.4309 36.8379L39.2985 36.1221L38.2545 33.3981L36.3869 34.1139ZM37.4314 36.839C37.5805 37.2268 37.68 37.5442 37.7383 37.7969L39.6871 37.3471C39.6014 36.9758 39.4689 36.5652 39.298 36.121L37.4314 36.839ZM37.744 37.8204C37.8098 38.077 37.8327 38.2667 37.8327 38.4H39.8327C39.8327 38.0533 39.7756 37.691 39.6814 37.3236L37.744 37.8204ZM37.8327 38.4V41.568H39.8327V38.4H37.8327ZM37.8327 41.568C37.8327 41.567 37.8327 41.5569 37.8351 41.5394C37.8375 41.5219 37.8426 41.4945 37.8537 41.46C37.8767 41.3883 37.925 41.2895 38.0176 41.1969L39.4318 42.6111C39.7664 42.2765 39.8327 41.8558 39.8327 41.568H37.8327ZM38.0176 41.1969C38.1289 41.0856 38.2443 41.0371 38.3116 41.0172C38.3756 40.9982 38.4117 41 38.4007 41V43C38.6481 43 39.0872 42.9558 39.4318 42.6111L38.0176 41.1969ZM38.4007 41H36.5887V43H38.4007V41ZM36.5887 41C36.5721 41 36.5922 40.998 36.6364 41.0098C36.6824 41.022 36.7648 41.0523 36.8534 41.1231L35.604 42.6849C35.9367 42.951 36.3219 43 36.5887 43V41ZM36.9358 41.1969C37.0284 41.2895 37.0767 41.3883 37.0997 41.46C37.1108 41.4945 37.1159 41.5219 37.1183 41.5394C37.1207 41.5569 37.1207 41.567 37.1207 41.568H35.1207C35.1207 41.8558 35.187 42.2765 35.5216 42.6111L36.9358 41.1969ZM37.1207 41.568V39.888H35.1207V41.568H37.1207ZM36.1207 38.888H33.9967V40.888H36.1207V38.888ZM32.9967 39.888V41.568H34.9967V39.888H32.9967ZM40.9023 41.4L40.2621 42.1682L40.2684 42.1734L40.9023 41.4ZM40.9023 33.972L41.5425 34.7402L41.5437 34.7392L40.9023 33.972ZM46.3863 33.468L45.6389 34.1324L45.678 34.1763L45.722 34.2154L46.3863 33.468ZM43.0983 35.832L43.723 36.6129L43.7384 36.6006L43.7533 36.5877L43.0983 35.832ZM43.0983 39.576L42.4736 40.3569L42.49 40.37L42.507 40.3824L43.0983 39.576ZM46.3863 39.816L45.6389 40.4804L45.678 40.5243L45.722 40.5634L46.3863 39.816ZM46.3863 41.904L47.0934 42.6111L47.0934 42.6111L46.3863 41.904ZM46.0623 41H43.1343V43H46.0623V41ZM43.1343 41C42.2384 41 41.7672 40.8159 41.5363 40.6266L40.2684 42.1734C41.0135 42.7841 42.0302 43 43.1343 43V41ZM41.5425 40.6318C41.3603 40.48 41.1823 40.192 41.1823 39.552H39.1823C39.1823 40.576 39.4843 41.52 40.2621 42.1682L41.5425 40.6318ZM41.1823 39.552V35.82H39.1823V39.552H41.1823ZM41.1823 35.82C41.1823 35.18 41.3603 34.892 41.5425 34.7402L40.2621 33.2038C39.4843 33.852 39.1823 34.796 39.1823 35.82H41.1823ZM41.5437 34.7392C41.774 34.5467 42.242 34.36 43.1343 34.36V32.36C42.0267 32.36 41.0067 32.5813 40.2609 33.2048L41.5437 34.7392ZM43.1343 34.36H46.0623V32.36H43.1343V34.36ZM46.0623 34.36C46.0614 34.36 46.0503 34.36 46.0309 34.3573C46.0116 34.3546 45.9804 34.3488 45.9411 34.3357C45.8593 34.3084 45.7428 34.2493 45.6389 34.1324L47.1337 32.8036C46.7936 32.421 46.3372 32.36 46.0623 32.36V34.36ZM45.722 34.2154C45.6051 34.1115 45.5459 33.995 45.5186 33.9132C45.5055 33.8739 45.4997 33.8428 45.497 33.8234C45.4943 33.804 45.4943 33.7929 45.4943 33.792H47.4943C47.4943 33.5171 47.4334 33.0607 47.0507 32.7206L45.722 34.2154ZM45.4943 33.792V35.244H47.4943V33.792H45.4943ZM45.4943 35.244C45.4943 35.243 45.4944 35.2329 45.4967 35.2154C45.4991 35.1979 45.5042 35.1705 45.5153 35.136C45.5383 35.0643 45.5866 34.9655 45.6792 34.8729L47.0934 36.2871C47.428 35.9525 47.4943 35.5318 47.4943 35.244H45.4943ZM45.6792 34.8729C45.7905 34.7616 45.9059 34.7131 45.9732 34.6932C46.0372 34.6742 46.0734 34.676 46.0623 34.676V36.676C46.3097 36.676 46.7488 36.6318 47.0934 36.2871L45.6792 34.8729ZM46.0623 34.676H43.6503V36.676H46.0623V34.676ZM43.6503 34.676C43.2905 34.676 42.8233 34.7471 42.4434 35.0763L43.7533 36.5877C43.682 36.6494 43.6192 36.6714 43.5983 36.6773C43.5801 36.6825 43.5926 36.676 43.6503 36.676V34.676ZM42.4736 35.0511C42.0486 35.3912 41.9183 35.8712 41.9183 36.276H43.9183C43.9183 36.2759 43.9183 36.2761 43.9183 36.276C43.9183 36.2759 43.9183 36.2761 43.9183 36.276C43.9183 36.276 43.9183 36.276 43.9183 36.276C43.9183 36.276 43.9183 36.2761 43.9183 36.2761C43.9183 36.2762 43.9183 36.2763 43.9183 36.2765C43.9183 36.2768 43.9183 36.2772 43.9183 36.2778C43.9182 36.2791 43.9181 36.2809 43.9179 36.2834C43.9175 36.2883 43.9167 36.2958 43.915 36.3057C43.9116 36.3253 43.9046 36.3549 43.8901 36.3907C43.8584 36.4689 43.8021 36.5496 43.723 36.6129L42.4736 35.0511ZM41.9183 36.276V39.132H43.9183V36.276H41.9183ZM41.9183 39.132C41.9183 39.5368 42.0486 40.0168 42.4736 40.3569L43.723 38.7951C43.8021 38.8584 43.8584 38.9391 43.8901 39.0173C43.9046 39.0531 43.9116 39.0827 43.915 39.1023C43.9167 39.1122 43.9175 39.1197 43.9179 39.1246C43.9181 39.1271 43.9182 39.1289 43.9183 39.1302C43.9183 39.1308 43.9183 39.1312 43.9183 39.1315C43.9183 39.1317 43.9183 39.1318 43.9183 39.1319C43.9183 39.1319 43.9183 39.132 43.9183 39.132C43.9183 39.132 43.9183 39.132 43.9183 39.132C43.9183 39.1319 43.9183 39.1321 43.9183 39.132C43.9183 39.1319 43.9183 39.1321 43.9183 39.132H41.9183ZM42.507 40.3824C42.8792 40.6554 43.3183 40.708 43.6503 40.708V38.708C43.6175 38.708 43.5937 38.7065 43.5777 38.7049C43.5615 38.7033 43.5559 38.7017 43.5589 38.7024C43.5626 38.7033 43.6175 38.7167 43.6897 38.7696L42.507 40.3824ZM43.6503 40.708H46.0623V38.708H43.6503V40.708ZM46.0623 40.708C46.0614 40.708 46.0503 40.708 46.0309 40.7053C46.0116 40.7026 45.9804 40.6968 45.9411 40.6837C45.8593 40.6564 45.7428 40.5973 45.6389 40.4804L47.1337 39.1516C46.7936 38.769 46.3372 38.708 46.0623 38.708V40.708ZM45.722 40.5634C45.6051 40.4595 45.5459 40.343 45.5186 40.2612C45.5055 40.2219 45.4997 40.1908 45.497 40.1714C45.4943 40.152 45.4943 40.1409 45.4943 40.14H47.4943C47.4943 39.8651 47.4334 39.4087 47.0507 39.0686L45.722 40.5634ZM45.4943 40.14V41.568H47.4943V40.14H45.4943ZM45.4943 41.568C45.4943 41.567 45.4944 41.5569 45.4967 41.5394C45.4991 41.5219 45.5042 41.4945 45.5153 41.46C45.5383 41.3883 45.5866 41.2895 45.6792 41.1969L47.0934 42.6111C47.428 42.2765 47.4943 41.8558 47.4943 41.568H45.4943ZM45.6792 41.1969C45.7905 41.0856 45.9059 41.0371 45.9732 41.0172C46.0372 40.9982 46.0734 41 46.0623 41V43C46.3097 43 46.7488 42.9558 47.0934 42.6111L45.6792 41.1969ZM47.9455 41.904L47.1981 42.5684L47.2372 42.6123L47.2811 42.6514L47.9455 41.904ZM47.9455 33.468L47.2384 32.7609L47.2384 32.7609L47.9455 33.468ZM50.4655 33.468L49.7181 34.1324L49.7572 34.1763L49.8011 34.2154L50.4655 33.468ZM50.5735 36.552H49.5735V37.552H50.5735V36.552ZM51.0535 36.552V37.552H51.7048L51.9681 36.9563L51.0535 36.552ZM52.2895 33.756L53.2041 34.1603L53.2133 34.1396L53.2215 34.1184L52.2895 33.756ZM52.5175 33.456L53.0214 34.3198L53.0472 34.3047L53.0722 34.288L52.5175 33.456ZM55.0135 33.468L54.1814 34.0227L54.1968 34.0458L54.2135 34.068L55.0135 33.468ZM55.0015 33.756L55.9176 34.157L55.9176 34.1568L55.0015 33.756ZM53.7775 36.552L52.8614 36.151L52.2825 37.4733L53.724 37.5506L53.7775 36.552ZM54.8455 37.032L54.0992 37.6976L54.1087 37.7083L54.1185 37.7186L54.8455 37.032ZM55.1455 41.904L55.8526 42.6111L55.8526 42.6111L55.1455 41.904ZM52.6375 41.904L51.8901 42.5684L51.9292 42.6123L51.9731 42.6514L52.6375 41.904ZM50.5735 38.82V37.82H49.5735V38.82H50.5735ZM50.4655 41.904L49.7584 41.1969L49.7584 41.1969L50.4655 41.904ZM50.1415 41H48.2815V43H50.1415V41ZM48.2815 41C48.2718 41 48.3025 40.9986 48.3582 41.0145C48.4168 41.0312 48.5127 41.0702 48.6098 41.1566L47.2811 42.6514C47.6166 42.9496 48.0193 43 48.2815 43V41ZM48.6929 41.2396C48.7793 41.3368 48.8183 41.4327 48.835 41.4913C48.8509 41.547 48.8495 41.5777 48.8495 41.568H46.8495C46.8495 41.8302 46.8999 42.2329 47.1981 42.5684L48.6929 41.2396ZM48.8495 41.568V33.792H46.8495V41.568H48.8495ZM48.8495 33.792C48.8495 33.781 48.8512 33.8171 48.8323 33.8811C48.8123 33.9484 48.7639 34.0638 48.6526 34.1751L47.2384 32.7609C46.8937 33.1055 46.8495 33.5446 46.8495 33.792H48.8495ZM48.6526 34.1751C48.56 34.2677 48.4612 34.316 48.3895 34.339C48.355 34.3501 48.3276 34.3552 48.3101 34.3576C48.2926 34.36 48.2825 34.36 48.2815 34.36V32.36C47.9937 32.36 47.573 32.4263 47.2384 32.7609L48.6526 34.1751ZM48.2815 34.36H50.1415V32.36H48.2815V34.36ZM50.1415 34.36C50.1406 34.36 50.1295 34.36 50.1101 34.3573C50.0907 34.3546 50.0596 34.3488 50.0203 34.3357C49.9385 34.3084 49.822 34.2493 49.7181 34.1324L51.2129 32.8036C50.8727 32.421 50.4164 32.36 50.1415 32.36V34.36ZM49.8011 34.2154C49.6842 34.1115 49.6251 33.995 49.5978 33.9132C49.5847 33.8739 49.5789 33.8428 49.5762 33.8234C49.5735 33.804 49.5735 33.7929 49.5735 33.792H51.5735C51.5735 33.5171 51.5125 33.0607 51.1298 32.7206L49.8011 34.2154ZM49.5735 33.792V36.552H51.5735V33.792H49.5735ZM50.5735 37.552H51.0535V35.552H50.5735V37.552ZM51.9681 36.9563L53.2041 34.1603L51.3749 33.3517L50.1389 36.1477L51.9681 36.9563ZM53.2215 34.1184C53.2271 34.1041 53.1844 34.2247 53.0214 34.3198L52.0136 32.5922C51.6586 32.7993 51.4639 33.1199 51.3575 33.3936L53.2215 34.1184ZM53.0722 34.288C52.9592 34.3634 52.8732 34.36 52.8895 34.36V32.36C52.6017 32.36 52.2678 32.4206 51.9628 32.624L53.0722 34.288ZM52.8895 34.36H54.7375V32.36H52.8895V34.36ZM54.7375 34.36C54.7246 34.36 54.649 34.3593 54.5441 34.3182C54.4273 34.2725 54.2867 34.1806 54.1814 34.0227L55.8455 32.9133C55.5239 32.4309 55.0094 32.36 54.7375 32.36V34.36ZM54.2135 34.068C54.0727 33.8803 54.0418 33.6807 54.0474 33.5464C54.0523 33.4279 54.0842 33.3576 54.0853 33.3552L55.9176 34.1568C56.0082 33.9499 56.2031 33.3875 55.8135 32.868L54.2135 34.068ZM54.0854 33.355L52.8614 36.151L54.6936 36.953L55.9176 34.157L54.0854 33.355ZM53.724 37.5506C53.944 37.5624 54.0364 37.6272 54.0992 37.6976L55.5918 36.3664C55.1266 35.8448 54.507 35.5896 53.831 35.5534L53.724 37.5506ZM54.1185 37.7186C54.1795 37.7832 54.2535 37.9022 54.2535 38.184H56.2535C56.2535 37.5058 56.0555 36.8568 55.5725 36.3454L54.1185 37.7186ZM54.2535 38.184V41.568H56.2535V38.184H54.2535ZM54.2535 41.568C54.2535 41.567 54.2535 41.5569 54.2559 41.5394C54.2583 41.5219 54.2634 41.4945 54.2745 41.46C54.2975 41.3883 54.3457 41.2895 54.4384 41.1969L55.8526 42.6111C56.1872 42.2765 56.2535 41.8558 56.2535 41.568H54.2535ZM54.4384 41.1969C54.5496 41.0856 54.6651 41.0371 54.7324 41.0172C54.7964 40.9982 54.8325 41 54.8215 41V43C55.0689 43 55.5079 42.9558 55.8526 42.6111L54.4384 41.1969ZM54.8215 41H52.9735V43H54.8215V41ZM52.9735 41C52.9638 41 52.9945 40.9986 53.0502 41.0145C53.1088 41.0312 53.2047 41.0702 53.3018 41.1566L51.9731 42.6514C52.3086 42.9496 52.7113 43 52.9735 43V41ZM53.3849 41.2396C53.4713 41.3368 53.5103 41.4327 53.527 41.4913C53.5429 41.547 53.5415 41.5777 53.5415 41.568H51.5415C51.5415 41.8302 51.5919 42.2329 51.8901 42.5684L53.3849 41.2396ZM53.5415 41.568V39.228H51.5415V41.568H53.5415ZM53.5415 39.228C53.5415 38.9369 53.4668 38.5718 53.1929 38.2636L51.6981 39.5924C51.5522 39.4282 51.5415 39.2631 51.5415 39.228H53.5415ZM53.1929 38.2636C52.882 37.9139 52.4721 37.82 52.1575 37.82V39.82C52.1302 39.82 52.0627 39.8164 51.9744 39.7833C51.8802 39.748 51.781 39.6857 51.6981 39.5924L53.1929 38.2636ZM52.1575 37.82H50.5735V39.82H52.1575V37.82ZM49.5735 38.82V41.568H51.5735V38.82H49.5735ZM49.5735 41.568C49.5735 41.567 49.5735 41.5569 49.5759 41.5394C49.5783 41.5219 49.5834 41.4945 49.5945 41.46C49.6175 41.3883 49.6657 41.2895 49.7584 41.1969L51.1726 42.6111C51.5072 42.2765 51.5735 41.8558 51.5735 41.568H49.5735ZM49.7584 41.1969C49.8696 41.0856 49.9851 41.0371 50.0524 41.0172C50.1164 40.9982 50.1525 41 50.1415 41V43C50.3889 43 50.8279 42.9558 51.1726 42.6111L49.7584 41.1969Z" fill="black"/>
<defs>
<linearGradient id="paint0_linear_49_31" x1="39" y1="2" x2="39" y2="96" gradientUnits="userSpaceOnUse">
<stop offset="0.341545" stop-color="#C7C7C7"/>
<stop offset="0.384075" stop-color="#C7C7C7"/>
<stop offset="1" stop-color="#C6C6C6" stop-opacity="0"/>
</linearGradient>
</defs>
</svg>
