<svg width="200" height="123" viewBox="0 0 200 123" fill="none" xmlns="http://www.w3.org/2000/svg">
<g clip-path="url(#clip0_4_92)">
<path fill-rule="evenodd" clip-rule="evenodd" d="M114.742 123H37.708V122.997C37.6042 122.999 37.5002 123 37.396 123C27.9188 123 2 120.137 2 110.608C2 106.977 5.76141 102.903 10.9423 99.2504C4.78388 95.0858 0 90.1814 0 85.9724C0 79.8115 10.2496 76.649 20.0569 75.183C19.2832 72.6981 18.414 70.2766 17.5878 67.9746L17.5877 67.9745C13.7739 57.349 10.8744 49.2707 22.5 49.2707C28.7792 49.2707 38.4935 51.6274 48.6099 55.4692C45.8197 50.1289 44 44.5353 44 40.7238C44 33.8032 49.9991 34.6604 56.9138 35.6486C58.5801 35.8867 60.2995 36.1324 62.0009 36.2787C57.385 28.9894 54 19.7823 54 14.5801C54 8.26978 65.1915 11.1985 75.5046 13.8973C77.0071 14.2905 78.4909 14.6788 79.9187 15.0329C89.0574 6.37663 99.1409 0 106.5 0C116.348 0 119.186 11.4193 119.809 24.4396C123.69 21.52 127.533 19.6077 130.5 19.6077C135.693 19.6077 137.124 25.4643 137.356 32.3273C139.058 30.9635 140.795 30.1657 142.5 30.1657C151.977 30.1657 156.892 54.8039 156.892 64.3334C156.892 66.0227 156.651 67.6552 156.201 69.1981C157.144 69.0778 158.104 68.9443 159.068 68.8103C167.401 67.6519 176 66.4566 176 73.4032C176 77.5752 172.898 83.9923 168.616 89.8891C173.919 91.1438 178 93.5239 178 98.0387C178 107.568 159.817 123 150.34 123C150.236 123 150.132 122.999 150.028 122.997V123H114.802L114.772 123L114.742 123Z" fill="#70C153"/>
<path fill-rule="evenodd" clip-rule="evenodd" d="M150.157 123H89.658V122.998C89.5764 122.999 89.4945 123 89.4125 123C81.9586 123 61.573 120.756 61.573 113.285C61.573 110.439 64.5314 107.244 68.6063 104.381C63.7626 101.116 60 97.2706 60 93.9708C60 88.9967 68.5497 86.5156 76.4644 85.4128C76.1556 83.7015 75.8146 81.954 75.4729 80.2034C72.9515 67.2844 70.3964 54.1929 80.5448 54.1929C84.1371 54.1929 88.9871 55.8332 94.2612 58.5255C93.2843 55.9202 92.7113 53.47 92.7113 51.5792C92.7113 46.1535 97.4297 46.8256 102.868 47.6003L102.868 47.6003C103.73 47.7231 104.611 47.8485 105.493 47.9526C101.073 39.6266 97.582 30.3241 97.582 26.5695C97.582 22.3429 105.572 27.0616 113.861 31.957C115.142 32.7139 116.431 33.475 117.699 34.208C124.948 21.7566 133.896 11 140.676 11C149.607 11 152.549 29.6642 153.516 46.2809C156.807 43.6845 160.124 41.9418 162.641 41.9418C166.724 41.9418 167.85 46.5333 168.033 51.9138C169.371 50.8445 170.737 50.2191 172.079 50.2191C179.533 50.2191 183.398 69.5351 183.398 77.0062C183.398 78.3305 183.208 79.6104 182.854 80.82C183.596 80.7257 184.351 80.621 185.109 80.516L185.11 80.5159L185.11 80.5159C191.663 79.6078 198.427 78.6706 198.427 84.1168C198.427 87.3876 195.987 92.4185 192.619 97.0415C196.79 98.0252 200 99.8911 200 103.431C200 110.902 185.699 123 178.245 123C178.163 123 178.081 122.999 178 122.998V123H150.384L150.27 123L150.157 123Z" fill="#9BF471"/>
<path fill-rule="evenodd" clip-rule="evenodd" d="M143.32 123H104.854V122.998C104.802 122.999 104.75 123 104.698 123C99.9594 123 87 120.929 87 114.033C87 111.406 88.8807 108.458 91.4713 105.815C88.392 102.802 86 99.2531 86 96.2075C86 91.7497 91.1248 89.4614 96.0284 88.4006C95.6416 86.6026 95.207 84.8504 94.7939 83.1848C92.887 75.4964 91.4372 69.6512 97.25 69.6512C100.39 69.6512 105.247 71.3564 110.305 74.1363C108.91 70.2721 108 66.2247 108 63.4667C108 58.4591 111 59.0794 114.457 59.7944C115.29 59.9667 116.15 60.1445 117 60.2503C114.692 54.976 113 48.314 113 44.5499C113 39.9838 118.596 42.103 123.752 44.0558L123.752 44.0558L123.752 44.0558C124.504 44.3403 125.245 44.6213 125.959 44.8775C130.529 38.614 135.57 34 139.25 34C144.174 34 145.593 42.2627 145.905 51.6839C147.845 49.5714 149.766 48.1877 151.25 48.1877C153.846 48.1877 154.562 52.4254 154.678 57.3913C155.529 56.4044 156.397 55.8271 157.25 55.8271C161.989 55.8271 164.446 73.6547 164.446 80.5501C164.446 81.7725 164.325 82.9538 164.1 84.0702C164.572 83.9832 165.052 83.8866 165.534 83.7896L165.534 83.7896L165.534 83.7896C169.7 82.9515 174 82.0865 174 87.113C174 90.1317 172.449 94.775 170.308 99.0417C172.959 99.9496 175 101.672 175 104.939C175 111.834 165.909 123 161.17 123C161.118 123 161.066 122.999 161.014 122.998V123H143.452L143.386 123L143.32 123Z" fill="#527B52"/>
</g>
<defs>
<clipPath id="clip0_4_92">
<rect width="200" height="123" fill="white"/>
</clipPath>
</defs>
</svg>
