<svg width="203" height="141" viewBox="0 0 273 141" fill="none" xmlns="http://www.w3.org/2000/svg">
<g clip-path="url(#clip0_5_166)">
<path fill-rule="evenodd" clip-rule="evenodd" d="M226 59.5431C226 60.9469 225.943 62.3081 225.832 63.6279C241.542 68.4755 253 83.5968 253 101.5C253 122.968 236.525 140.435 216 140.987V141H215H43V140.999C42.9023 141 42.8046 141 42.7068 141C19.1205 141 0 122.433 0 99.5295C0 77.2536 18.0869 59.0798 40.778 58.1004C42.9009 37.1241 61.1186 20.7354 83.2782 20.7354C88.2345 20.7354 92.9937 21.5552 97.4197 23.0629C108.552 9.03041 126.604 0 149.265 0C188.201 0 226 26.6584 226 59.5431Z" fill="#B6D3FF"/>
<path fill-rule="evenodd" clip-rule="evenodd" d="M234 62.5C234 63.3545 233.976 64.1926 233.93 65.0148C234.285 65.0049 234.642 65 235 65C255.987 65 273 82.0132 273 103C273 123.987 255.987 141 235 141H47C24.9086 141 7 123.091 7 101C7 79.514 23.9405 61.9847 45.1935 61.0401C47.1819 40.8076 64.2449 25 85 25C90.1364 25 95.0467 25.9681 99.5583 27.7319C111.13 13.9183 130.108 5 154 5C194.593 5 234 30.7436 234 62.5Z" fill="white"/>
</g>
<defs>
<clipPath id="clip0_5_166">
<rect width="273" height="141" fill="white"/>
</clipPath>
</defs>
</svg>
