<svg width="220" height="166" viewBox="0 0 220 166" fill="none" xmlns="http://www.w3.org/2000/svg">
<g clip-path="url(#clip0_4_67)">
<path fill-rule="evenodd" clip-rule="evenodd" d="M146.5 158H54C24.1766 158 0 133.823 0 104C0 75.5219 22.0446 52.1927 50.0002 50.1459L50 50C50 22.3858 72.3858 0 100 0C125.255 0 146.137 18.7242 149.521 43.0477C188.713 44.287 220 69.5351 220 100.5C220 131.864 187.9 157.363 148 157.988V158H146.5Z" fill="#B6D3FF"/>
<path fill-rule="evenodd" clip-rule="evenodd" d="M146.5 166H54C24.1766 166 0 141.823 0 112C0 83.5219 22.0446 60.1927 50.0002 58.1459L50 58C50 30.3858 72.3858 8 100 8C125.255 8 146.137 26.7242 149.521 51.0477C188.713 52.287 220 77.5351 220 108.5C220 139.864 187.9 165.363 148 165.988V166H146.5Z" fill="white"/>
</g>
<defs>
<clipPath id="clip0_4_67">
<rect width="220" height="166" fill="white"/>
</clipPath>
</defs>
</svg>
