<svg width="200" height="174" viewBox="0 0 200 174" fill="none" xmlns="http://www.w3.org/2000/svg">
<g clip-path="url(#clip0_2_13)">
<rect width="200" height="174" fill="white"/>
<rect width="200" height="174" fill="#9BF471"/>
<rect y="14" width="200" height="160" fill="#70C153"/>
<rect y="53" width="200" height="121" fill="#527B52"/>
<rect y="70" width="200" height="104" fill="#C89566"/>
<path d="M0 78C0 78 20 78 33 78C44.6978 78 50.3975 84.0097 62 85.5C77.311 87.4667 86.0648 83.7742 101.5 84C112.644 84.163 119.041 87.5293 130 85.5C138.202 83.9812 141.658 78 150 78C168.5 78 200 78 200 78V174H0V78Z" fill="#A9794D"/>
<path d="M0 102C0 102 6.85814 102 18 102C27 102 32.5821 107.058 41.5 105C67.5 99 69.3645 106.24 81 106.888C99.4098 107.912 109.674 100.386 128 102.414C138.357 103.559 140 111.696 154 108.379C168 105.063 171 102.065 186 102.065C190 102.065 200 102.065 200 102.065V174H0V102Z" fill="#885F39"/>
<path fill-rule="evenodd" clip-rule="evenodd" d="M12.2213 147.092C15.2767 147.645 16.3601 151.348 18.0926 153.964C19.337 155.843 20.4376 157.683 20.7219 159.929C21.0602 162.603 21.3771 165.469 19.8251 167.655C18.0661 170.134 15.1696 172.508 12.2213 171.905C9.36153 171.321 9.03585 167.341 7.16252 165.069C5.60802 163.184 2.93093 162.316 2.34575 159.929C1.63018 157.011 1.98252 153.748 3.80529 151.378C5.81425 148.767 9.00965 146.511 12.2213 147.092Z" fill="#ADADAD"/>
<path fill-rule="evenodd" clip-rule="evenodd" d="M66.6062 112.921C67.655 115.843 64.9902 118.633 63.5907 121.441C62.5854 123.459 61.5425 125.332 59.7391 126.701C57.5928 128.331 55.2694 130.038 52.5999 129.787C49.5741 129.503 46.07 128.182 45.1172 125.327C44.1931 122.559 47.4773 120.287 48.5081 117.528C49.3634 115.239 48.7769 112.487 50.551 110.787C52.7204 108.708 55.7228 107.381 58.6862 107.775C61.9522 108.209 65.5037 109.849 66.6062 112.921Z" fill="#ADADAD"/>
<path fill-rule="evenodd" clip-rule="evenodd" d="M136.651 111.889C138.191 114.585 136.051 117.795 135.161 120.804C134.521 122.965 133.819 124.991 132.281 126.653C130.45 128.63 128.459 130.715 125.786 130.932C122.757 131.177 119.077 130.484 117.643 127.839C116.252 125.273 119.092 122.465 119.628 119.569C120.073 117.167 119.017 114.558 120.469 112.576C122.244 110.152 124.971 108.324 127.958 108.197C131.249 108.058 135.031 109.055 136.651 111.889Z" fill="#A9794D"/>
<path fill-rule="evenodd" clip-rule="evenodd" d="M136.651 114.889C138.191 117.585 136.051 120.795 135.161 123.804C134.521 125.965 133.819 127.991 132.281 129.653C130.45 131.63 128.459 133.715 125.786 133.932C122.757 134.177 119.077 133.484 117.643 130.839C116.252 128.273 119.092 125.465 119.628 122.569C120.073 120.167 119.017 117.558 120.469 115.576C122.244 113.152 124.971 111.324 127.958 111.197C131.249 111.058 135.031 112.055 136.651 114.889Z" fill="#ADADAD"/>
<path fill-rule="evenodd" clip-rule="evenodd" d="M174.221 144.092C177.277 144.645 178.36 148.348 180.093 150.964C181.337 152.843 182.438 154.683 182.722 156.929C183.06 159.603 183.377 162.469 181.825 164.655C180.066 167.134 177.17 169.508 174.221 168.905C171.362 168.321 171.036 164.341 169.163 162.069C167.608 160.184 164.931 159.316 164.346 156.929C163.63 154.011 163.983 150.748 165.805 148.378C167.814 145.767 171.01 143.511 174.221 144.092Z" fill="#A9794D"/>
<path fill-rule="evenodd" clip-rule="evenodd" d="M174.221 141.092C177.277 141.645 178.36 145.348 180.093 147.964C181.337 149.843 182.438 151.683 182.722 153.929C183.06 156.603 183.377 159.469 181.825 161.655C180.066 164.134 177.17 166.508 174.221 165.905C171.362 165.321 171.036 161.341 169.163 159.069C167.608 157.184 164.931 156.316 164.346 153.929C163.63 151.011 163.983 147.748 165.805 145.378C167.814 142.767 171.01 140.511 174.221 141.092Z" fill="#ADADAD"/>
<path fill-rule="evenodd" clip-rule="evenodd" d="M16.4926 108C21.1296 108 25.5067 110.862 26.7592 115.409C27.8923 119.522 24.8488 123.26 21.3418 125.603C18.3923 127.574 14.712 127.409 11.7707 125.425C8.30099 123.085 5.11659 119.493 6.22368 115.408C7.45744 110.855 11.8551 108 16.4926 108Z" fill="#A9794D"/>
<path fill-rule="evenodd" clip-rule="evenodd" d="M16.4926 110C21.1296 110 25.5067 112.862 26.7592 117.409C27.8923 121.522 24.8488 125.26 21.3418 127.603C18.3923 129.574 14.712 129.409 11.7707 127.425C8.30099 125.085 5.11659 121.493 6.22368 117.408C7.45744 112.855 11.8551 110 16.4926 110Z" fill="#ADADAD"/>
<path fill-rule="evenodd" clip-rule="evenodd" d="M43.4926 141C48.1296 141 52.5067 143.862 53.7592 148.409C54.8923 152.522 51.8488 156.26 48.3418 158.603C45.3923 160.574 41.712 160.409 38.7707 158.425C35.301 156.085 32.1166 152.493 33.2237 148.408C34.4574 143.855 38.8551 141 43.4926 141Z" fill="#A9794D"/>
<path fill-rule="evenodd" clip-rule="evenodd" d="M45.4926 141C50.1296 141 54.5067 143.862 55.7592 148.409C56.8923 152.522 53.8488 156.26 50.3418 158.603C47.3923 160.574 43.712 160.409 40.7707 158.425C37.301 156.085 34.1166 152.493 35.2237 148.408C36.4574 143.855 40.8551 141 45.4926 141Z" fill="#ADADAD"/>
<path fill-rule="evenodd" clip-rule="evenodd" d="M87.4926 150C92.1296 150 96.5067 152.862 97.7592 157.409C98.8923 161.522 95.8488 165.26 92.3418 167.603C89.3923 169.574 85.712 169.409 82.7707 167.425C79.301 165.085 76.1166 161.493 77.2237 157.408C78.4574 152.855 82.8551 150 87.4926 150Z" fill="#A9794D"/>
<path fill-rule="evenodd" clip-rule="evenodd" d="M85.4926 150C90.1296 150 94.5067 152.862 95.7592 157.409C96.8923 161.522 93.8488 165.26 90.3418 167.603C87.3923 169.574 83.712 169.409 80.7707 167.425C77.301 165.085 74.1166 161.493 75.2237 157.408C76.4574 152.855 80.8551 150 85.4926 150Z" fill="#ADADAD"/>
<path fill-rule="evenodd" clip-rule="evenodd" d="M90.4926 118C95.1296 118 99.5067 120.862 100.759 125.409C101.892 129.522 98.8488 133.26 95.3418 135.603C92.3923 137.574 88.712 137.409 85.7707 135.425C82.301 133.085 79.1166 129.493 80.2237 125.408C81.4574 120.855 85.8551 118 90.4926 118Z" fill="#A9794D"/>
<path fill-rule="evenodd" clip-rule="evenodd" d="M89.4926 119C94.1296 119 98.5067 121.862 99.7592 126.409C100.892 130.522 97.8488 134.26 94.3418 136.603C91.3923 138.574 87.712 138.409 84.7707 136.425C81.301 134.085 78.1166 130.493 79.2237 126.408C80.4574 121.855 84.8551 119 89.4926 119Z" fill="#ADADAD"/>
<path fill-rule="evenodd" clip-rule="evenodd" d="M179.493 110C184.13 110 188.507 112.862 189.759 117.409C190.892 121.522 187.849 125.26 184.342 127.603C181.392 129.574 177.712 129.409 174.771 127.425C171.301 125.085 168.117 121.493 169.224 117.408C170.457 112.855 174.855 110 179.493 110Z" fill="#A9794D"/>
<path fill-rule="evenodd" clip-rule="evenodd" d="M179.493 108C184.13 108 188.507 110.862 189.759 115.409C190.892 119.522 187.849 123.26 184.342 125.603C181.392 127.574 177.712 127.409 174.771 125.425C171.301 123.085 168.117 119.493 169.224 115.408C170.457 110.855 174.855 108 179.493 108Z" fill="#ADADAD"/>
<path fill-rule="evenodd" clip-rule="evenodd" d="M129.493 148C134.13 148 138.507 150.862 139.759 155.409C140.892 159.522 137.849 163.26 134.342 165.603C131.392 167.574 127.712 167.409 124.771 165.425C121.301 163.085 118.117 159.493 119.224 155.408C120.457 150.855 124.855 148 129.493 148Z" fill="#A9794D"/>
<path fill-rule="evenodd" clip-rule="evenodd" d="M129.493 147C134.13 147 138.507 149.862 139.759 154.409C140.892 158.522 137.849 162.26 134.342 164.603C131.392 166.574 127.712 166.409 124.771 164.425C121.301 162.085 118.117 158.493 119.224 154.408C120.457 149.855 124.855 147 129.493 147Z" fill="#ADADAD"/>
<path fill-rule="evenodd" clip-rule="evenodd" d="M112.494 150.613C113.747 148.253 111.285 145.975 109.491 143.964C107.628 141.874 105.542 138.814 103.013 139.981C100.522 141.129 101.696 144.649 102.132 147.358C102.471 149.464 102.965 151.759 105.01 152.402C107.726 153.255 111.17 153.106 112.494 150.613Z" fill="#ADADAD"/>
<path fill-rule="evenodd" clip-rule="evenodd" d="M153.368 139.997C156.039 139.903 156.78 136.631 157.625 134.072C158.503 131.413 160.11 128.078 157.835 126.47C155.595 124.888 153.134 127.664 151.006 129.396C149.351 130.743 147.611 132.318 148.077 134.411C148.696 137.19 150.547 140.098 153.368 139.997Z" fill="#ADADAD"/>
<path fill-rule="evenodd" clip-rule="evenodd" d="M161.884 178.126C164.15 176.709 163.156 173.505 162.608 170.866C162.04 168.124 161.763 164.432 158.99 164.178C156.259 163.927 155.516 167.562 154.538 170.126C153.778 172.119 153.059 174.354 154.509 175.934C156.434 178.03 159.492 179.623 161.884 178.126Z" fill="#ADADAD"/>
<path fill-rule="evenodd" clip-rule="evenodd" d="M61.3675 171.997C64.0386 171.903 64.7799 168.631 65.625 166.072C66.5031 163.413 68.1101 160.078 65.8352 158.47C63.5954 156.888 61.1345 159.664 59.0061 161.396C57.3513 162.743 55.6106 164.318 56.0768 166.411C56.6957 169.19 58.5474 172.098 61.3675 171.997Z" fill="#ADADAD"/>
<path fill-rule="evenodd" clip-rule="evenodd" d="M31.6456 138.579C31.18 135.947 27.8371 135.668 25.1855 135.187C22.4304 134.688 18.9033 133.561 17.6283 136.037C16.3731 138.475 19.4647 140.526 21.476 142.393C23.0398 143.844 24.842 145.348 26.8499 144.595C29.5152 143.596 32.1372 141.357 31.6456 138.579Z" fill="#ADADAD"/>
</g>
<defs>
<clipPath id="clip0_2_13">
<rect width="200" height="174" fill="white"/>
</clipPath>
</defs>
</svg>
