<svg width="83" height="96" viewBox="0 0 83 96" fill="none" xmlns="http://www.w3.org/2000/svg">
<rect width="83" height="96" rx="10" fill="black"/>
<rect y="2" width="78" height="94" rx="10" fill="url(#paint0_linear_49_30)"/>
<circle cx="17" cy="12" r="4.5" fill="#CBE0FF" stroke="black"/>
<circle cx="39" cy="12" r="4.5" fill="#CBE0FF" stroke="black"/>
<circle cx="61" cy="12" r="4.5" fill="#CBE0FF" stroke="black"/>
<path d="M11.2821 42H9.42211C9.27011 42 9.15811 41.968 9.08611 41.904C9.02211 41.832 8.99011 41.72 8.99011 41.568V33.792C8.99011 33.64 9.02211 33.532 9.08611 33.468C9.15811 33.396 9.27011 33.36 9.42211 33.36H14.7741C14.9261 33.36 15.0341 33.396 15.0981 33.468C15.1701 33.532 15.2061 33.64 15.2061 33.792V35.22C15.2061 35.372 15.1701 35.484 15.0981 35.556C15.0341 35.62 14.9261 35.652 14.7741 35.652H11.7141V36.9H13.8021C13.9541 36.9 14.0621 36.936 14.1261 37.008C14.1981 37.072 14.2341 37.18 14.2341 37.332V38.772C14.2341 38.924 14.1981 39.036 14.1261 39.108C14.0621 39.172 13.9541 39.204 13.8021 39.204H11.7141V41.568C11.7141 41.72 11.6781 41.832 11.6061 41.904C11.5421 41.968 11.4341 42 11.2821 42ZM23.6695 39.732C23.6695 40.1 23.6135 40.436 23.5015 40.74C23.3975 41.036 23.2055 41.292 22.9255 41.508C22.6535 41.716 22.2735 41.88 21.7855 42C21.3055 42.12 20.6935 42.18 19.9495 42.18C19.2055 42.18 18.5895 42.12 18.1015 42C17.6135 41.88 17.2295 41.716 16.9495 41.508C16.6775 41.292 16.4855 41.036 16.3735 40.74C16.2695 40.436 16.2175 40.1 16.2175 39.732V35.64C16.2175 35.272 16.2695 34.94 16.3735 34.644C16.4855 34.34 16.6775 34.08 16.9495 33.864C17.2295 33.648 17.6135 33.48 18.1015 33.36C18.5895 33.24 19.2055 33.18 19.9495 33.18C20.6935 33.18 21.3055 33.24 21.7855 33.36C22.2735 33.48 22.6535 33.648 22.9255 33.864C23.2055 34.08 23.3975 34.34 23.5015 34.644C23.6135 34.94 23.6695 35.272 23.6695 35.64V39.732ZM18.9415 39.3C18.9415 39.46 19.0015 39.596 19.1215 39.708C19.2415 39.812 19.5175 39.864 19.9495 39.864C20.3815 39.864 20.6575 39.812 20.7775 39.708C20.8975 39.596 20.9575 39.46 20.9575 39.3V36.072C20.9575 35.92 20.8975 35.792 20.7775 35.688C20.6575 35.576 20.3815 35.52 19.9495 35.52C19.5175 35.52 19.2415 35.576 19.1215 35.688C19.0015 35.792 18.9415 35.92 18.9415 36.072V39.3ZM27.9091 35.52V37.056H28.8091C29.0171 37.056 29.1571 37.004 29.2291 36.9C29.3011 36.788 29.3371 36.652 29.3371 36.492V36.084C29.3371 35.924 29.3011 35.792 29.2291 35.688C29.1571 35.576 29.0171 35.52 28.8091 35.52H27.9091ZM27.4771 42H25.6291C25.4771 42 25.3651 41.968 25.2931 41.904C25.2291 41.832 25.1971 41.72 25.1971 41.568V33.792C25.1971 33.64 25.2291 33.532 25.2931 33.468C25.3651 33.396 25.4771 33.36 25.6291 33.36H29.6251C30.5211 33.36 31.1371 33.548 31.4731 33.924C31.8171 34.292 31.9891 34.772 31.9891 35.364V35.916C31.9891 36.252 31.9371 36.54 31.8331 36.78C31.7371 37.012 31.5651 37.18 31.3171 37.284C31.7491 37.332 32.0971 37.508 32.3611 37.812C32.6331 38.116 32.7691 38.52 32.7691 39.024V41.568C32.7691 41.72 32.7331 41.832 32.6611 41.904C32.5971 41.968 32.4891 42 32.3371 42H30.4771C30.3251 42 30.2131 41.968 30.1411 41.904C30.0771 41.832 30.0451 41.72 30.0451 41.568V39.732C30.0451 39.556 30.0091 39.428 29.9371 39.348C29.8731 39.26 29.7571 39.216 29.5891 39.216H27.9091V41.568C27.9091 41.72 27.8731 41.832 27.8011 41.904C27.7371 41.968 27.6291 42 27.4771 42ZM40.2605 33.36H42.0485C42.2005 33.36 42.3085 33.396 42.3725 33.468C42.4445 33.532 42.4805 33.64 42.4805 33.792V38.448C42.4805 38.704 42.4685 38.944 42.4445 39.168C42.4285 39.384 42.3685 39.64 42.2645 39.936L41.6645 41.568C41.6245 41.688 41.5645 41.792 41.4845 41.88C41.4125 41.96 41.3125 42 41.1845 42H39.5885C39.4605 42 39.3445 41.972 39.2405 41.916C39.1365 41.86 39.0685 41.768 39.0365 41.64L38.4845 39.684C38.4605 39.604 38.4285 39.552 38.3885 39.528C38.3565 39.496 38.3165 39.48 38.2685 39.48H38.1605C38.1125 39.48 38.0685 39.496 38.0285 39.528C37.9965 39.552 37.9685 39.604 37.9445 39.684L37.3805 41.64C37.3485 41.76 37.2885 41.852 37.2005 41.916C37.1125 41.972 37.0045 42 36.8765 42H35.2925C35.1645 42 35.0525 41.96 34.9565 41.88C34.8685 41.8 34.8045 41.696 34.7645 41.568L34.1645 39.912C34.0605 39.616 33.9965 39.36 33.9725 39.144C33.9565 38.92 33.9485 38.68 33.9485 38.424V33.792C33.9485 33.64 33.9805 33.532 34.0445 33.468C34.1165 33.396 34.2285 33.36 34.3805 33.36H36.2285C36.3805 33.36 36.4885 33.396 36.5525 33.468C36.6245 33.532 36.6605 33.64 36.6605 33.792V38.208L37.3565 36.696C37.4205 36.56 37.5045 36.464 37.6085 36.408C37.7125 36.352 37.8405 36.324 37.9925 36.324H38.4965C38.6485 36.324 38.7765 36.352 38.8805 36.408C38.9845 36.464 39.0685 36.56 39.1325 36.696L39.8285 38.208V33.792C39.8285 33.64 39.8605 33.532 39.9245 33.468C39.9965 33.396 40.1085 33.36 40.2605 33.36ZM47.1612 35.88L46.5972 37.704H48.4812L47.9172 35.88C47.8852 35.808 47.8492 35.756 47.8092 35.724C47.7772 35.692 47.7372 35.676 47.6892 35.676H47.3892C47.3412 35.676 47.2972 35.692 47.2572 35.724C47.2252 35.756 47.1932 35.808 47.1612 35.88ZM46.4772 41.568C46.4772 41.72 46.4412 41.832 46.3692 41.904C46.3052 41.968 46.1972 42 46.0452 42H44.2812C44.1292 42 44.0172 41.968 43.9452 41.904C43.8812 41.832 43.8492 41.72 43.8492 41.568V38.4C43.8492 38.16 43.8852 37.884 43.9572 37.572C44.0372 37.26 44.1572 36.896 44.3172 36.48L45.3612 33.756C45.4092 33.62 45.4812 33.52 45.5772 33.456C45.6812 33.392 45.8132 33.36 45.9732 33.36H49.2012C49.3532 33.36 49.4772 33.392 49.5732 33.456C49.6772 33.52 49.7532 33.62 49.8012 33.756L50.8452 36.48C51.0052 36.896 51.1212 37.26 51.1932 37.572C51.2732 37.884 51.3132 38.16 51.3132 38.4V41.568C51.3132 41.72 51.2772 41.832 51.2052 41.904C51.1412 41.968 51.0332 42 50.8812 42H49.0692C48.9092 42 48.7892 41.968 48.7092 41.904C48.6372 41.832 48.6012 41.72 48.6012 41.568V39.888H46.4772V41.568ZM55.5068 35.52V37.056H56.4068C56.6148 37.056 56.7548 37.004 56.8268 36.9C56.8988 36.788 56.9348 36.652 56.9348 36.492V36.084C56.9348 35.924 56.8988 35.792 56.8268 35.688C56.7548 35.576 56.6148 35.52 56.4068 35.52H55.5068ZM55.0748 42H53.2268C53.0748 42 52.9628 41.968 52.8908 41.904C52.8268 41.832 52.7948 41.72 52.7948 41.568V33.792C52.7948 33.64 52.8268 33.532 52.8908 33.468C52.9628 33.396 53.0748 33.36 53.2268 33.36H57.2228C58.1188 33.36 58.7348 33.548 59.0708 33.924C59.4148 34.292 59.5868 34.772 59.5868 35.364V35.916C59.5868 36.252 59.5348 36.54 59.4308 36.78C59.3348 37.012 59.1628 37.18 58.9148 37.284C59.3468 37.332 59.6948 37.508 59.9588 37.812C60.2308 38.116 60.3668 38.52 60.3668 39.024V41.568C60.3668 41.72 60.3308 41.832 60.2588 41.904C60.1948 41.968 60.0868 42 59.9348 42H58.0748C57.9228 42 57.8108 41.968 57.7388 41.904C57.6748 41.832 57.6428 41.72 57.6428 41.568V39.732C57.6428 39.556 57.6068 39.428 57.5348 39.348C57.4708 39.26 57.3548 39.216 57.1868 39.216H55.5068V41.568C55.5068 41.72 55.4708 41.832 55.3988 41.904C55.3348 41.968 55.2268 42 55.0748 42ZM66.1888 42H62.1448C61.9928 42 61.8808 41.968 61.8088 41.904C61.7448 41.832 61.7128 41.72 61.7128 41.568V33.792C61.7128 33.64 61.7448 33.532 61.8088 33.468C61.8808 33.396 61.9928 33.36 62.1448 33.36H66.1888C67.1888 33.36 67.9288 33.56 68.4088 33.96C68.8968 34.36 69.1408 34.976 69.1408 35.808V39.552C69.1408 40.384 68.8968 41 68.4088 41.4C67.9288 41.8 67.1888 42 66.1888 42ZM64.4368 35.652V39.732H65.8648C66.0568 39.732 66.1968 39.684 66.2848 39.588C66.3808 39.492 66.4288 39.344 66.4288 39.144V36.228C66.4288 36.028 66.3808 35.884 66.2848 35.796C66.1968 35.7 66.0568 35.652 65.8648 35.652H64.4368Z" fill="#FF3541"/>
<path d="M9.08611 41.904L8.3387 42.5684L8.37778 42.6123L8.42175 42.6514L9.08611 41.904ZM9.08611 33.468L8.379 32.7609L8.379 32.7609L9.08611 33.468ZM15.0981 33.468L14.3507 34.1324L14.3898 34.1763L14.4337 34.2154L15.0981 33.468ZM11.7141 35.652V34.652H10.7141V35.652H11.7141ZM11.7141 36.9H10.7141V37.9H11.7141V36.9ZM14.1261 37.008L13.3787 37.6724L13.4178 37.7163L13.4617 37.7554L14.1261 37.008ZM14.1261 39.108L13.419 38.4009L13.419 38.4009L14.1261 39.108ZM11.7141 39.204V38.204H10.7141V39.204H11.7141ZM11.6061 41.904L10.899 41.1969L10.899 41.1969L11.6061 41.904ZM11.2821 41H9.42211V43H11.2821V41ZM9.42211 41C9.41244 41 9.44309 40.9986 9.49883 41.0145C9.55741 41.0312 9.65329 41.0702 9.75047 41.1566L8.42175 42.6514C8.7572 42.9496 9.15988 43 9.42211 43V41ZM9.83352 41.2396C9.9199 41.3368 9.9589 41.4327 9.97563 41.4913C9.99156 41.547 9.99011 41.5777 9.99011 41.568H7.99011C7.99011 41.8302 8.04052 42.2329 8.3387 42.5684L9.83352 41.2396ZM9.99011 41.568V33.792H7.99011V41.568H9.99011ZM9.99011 33.792C9.99011 33.781 9.99187 33.8171 9.97291 33.8811C9.95296 33.9484 9.90448 34.0638 9.79322 34.1751L8.379 32.7609C8.03435 33.1055 7.99011 33.5446 7.99011 33.792H9.99011ZM9.79322 34.1751C9.70058 34.2677 9.6018 34.316 9.53012 34.339C9.49565 34.3501 9.46824 34.3552 9.45072 34.3576C9.43322 34.36 9.42313 34.36 9.42211 34.36V32.36C9.13429 32.36 8.7136 32.4263 8.379 32.7609L9.79322 34.1751ZM9.42211 34.36H14.7741V32.36H9.42211V34.36ZM14.7741 34.36C14.7732 34.36 14.7621 34.36 14.7427 34.3573C14.7234 34.3546 14.6922 34.3488 14.6529 34.3357C14.5711 34.3084 14.4546 34.2493 14.3507 34.1324L15.8455 32.8036C15.5054 32.421 15.049 32.36 14.7741 32.36V34.36ZM14.4337 34.2154C14.3168 34.1115 14.2577 33.995 14.2304 33.9132C14.2173 33.8739 14.2115 33.8428 14.2088 33.8234C14.2061 33.804 14.2061 33.7929 14.2061 33.792H16.2061C16.2061 33.5171 16.1451 33.0607 15.7625 32.7206L14.4337 34.2154ZM14.2061 33.792V35.22H16.2061V33.792H14.2061ZM14.2061 35.22C14.2061 35.219 14.2061 35.2089 14.2085 35.1914C14.2109 35.1739 14.216 35.1465 14.2271 35.112C14.2501 35.0403 14.2984 34.9415 14.391 34.8489L15.8052 36.2631C16.1398 35.9285 16.2061 35.5078 16.2061 35.22H14.2061ZM14.391 34.8489C14.5023 34.7376 14.6177 34.6891 14.685 34.6692C14.749 34.6502 14.7851 34.652 14.7741 34.652V36.652C15.0215 36.652 15.4606 36.6078 15.8052 36.2631L14.391 34.8489ZM14.7741 34.652H11.7141V36.652H14.7741V34.652ZM10.7141 35.652V36.9H12.7141V35.652H10.7141ZM11.7141 37.9H13.8021V35.9H11.7141V37.9ZM13.8021 37.9C13.8012 37.9 13.7901 37.9 13.7707 37.8973C13.7514 37.8946 13.7202 37.8888 13.6809 37.8757C13.5991 37.8484 13.4826 37.7893 13.3787 37.6724L14.8735 36.3436C14.5334 35.961 14.077 35.9 13.8021 35.9V37.9ZM13.4617 37.7554C13.3448 37.6515 13.2857 37.535 13.2584 37.4532C13.2453 37.4139 13.2395 37.3828 13.2368 37.3634C13.2341 37.344 13.2341 37.3329 13.2341 37.332H15.2341C15.2341 37.0571 15.1731 36.6007 14.7905 36.2606L13.4617 37.7554ZM13.2341 37.332V38.772H15.2341V37.332H13.2341ZM13.2341 38.772C13.2341 38.771 13.2341 38.7609 13.2365 38.7434C13.2389 38.7259 13.244 38.6985 13.2551 38.664C13.2781 38.5923 13.3264 38.4935 13.419 38.4009L14.8332 39.8151C15.1678 39.4805 15.2341 39.0598 15.2341 38.772H13.2341ZM13.419 38.4009C13.5303 38.2896 13.6457 38.2411 13.713 38.2212C13.777 38.2022 13.8131 38.204 13.8021 38.204V40.204C14.0495 40.204 14.4886 40.1598 14.8332 39.8151L13.419 38.4009ZM13.8021 38.204H11.7141V40.204H13.8021V38.204ZM10.7141 39.204V41.568H12.7141V39.204H10.7141ZM10.7141 41.568C10.7141 41.567 10.7141 41.5569 10.7165 41.5394C10.7189 41.5219 10.724 41.4945 10.7351 41.46C10.7581 41.3883 10.8064 41.2895 10.899 41.1969L12.3132 42.6111C12.6478 42.2765 12.7141 41.8558 12.7141 41.568H10.7141ZM10.899 41.1969C11.0103 41.0856 11.1257 41.0371 11.193 41.0172C11.257 40.9982 11.2931 41 11.2821 41V43C11.5295 43 11.9686 42.9558 12.3132 42.6111L10.899 41.1969ZM23.5015 40.74L22.5631 40.3943L22.5605 40.4014L22.558 40.4085L23.5015 40.74ZM22.9255 41.508L23.5329 42.3024L23.5363 42.2998L22.9255 41.508ZM21.7855 42L21.5467 41.0289L21.5429 41.0299L21.7855 42ZM18.1015 42L17.8627 42.9711L17.8627 42.9711L18.1015 42ZM16.9495 41.508L16.3276 42.2911L16.3402 42.3011L16.3532 42.3107L16.9495 41.508ZM16.3735 40.74L15.4273 41.0637L15.4325 41.0789L15.4382 41.0939L16.3735 40.74ZM16.3735 34.644L15.4351 34.2983L15.4325 34.3054L15.43 34.3125L16.3735 34.644ZM16.9495 33.864L16.3386 33.0721L16.3276 33.0809L16.9495 33.864ZM18.1015 33.36L17.8627 32.3889L17.8627 32.3889L18.1015 33.36ZM21.7855 33.36L21.5429 34.3301L21.5467 34.3311L21.7855 33.36ZM22.9255 33.864L22.3035 34.6472L22.3147 34.6558L22.9255 33.864ZM23.5015 34.644L22.5553 34.9677L22.5605 34.9829L22.5662 34.9979L23.5015 34.644ZM19.1215 39.708L18.4392 40.4391L18.4526 40.4516L18.4666 40.4637L19.1215 39.708ZM20.7775 39.708L21.4324 40.4637L21.4463 40.4516L21.4598 40.4391L20.7775 39.708ZM20.7775 35.688L20.0952 36.4191L20.1086 36.4316L20.1226 36.4437L20.7775 35.688ZM19.1215 35.688L19.7764 36.4437L19.7903 36.4316L19.8038 36.4191L19.1215 35.688ZM22.6695 39.732C22.6695 39.9979 22.6292 40.215 22.5631 40.3943L24.4398 41.0857C24.5978 40.657 24.6695 40.2021 24.6695 39.732H22.6695ZM22.558 40.4085C22.526 40.4996 22.4617 40.6028 22.3147 40.7162L23.5363 42.2998C23.9493 41.9812 24.269 41.5724 24.4449 41.0715L22.558 40.4085ZM22.318 40.7136C22.1942 40.8084 21.9582 40.9277 21.5467 41.0289L22.0243 42.9711C22.5888 42.8323 23.1128 42.6236 23.5329 42.3024L22.318 40.7136ZM21.5429 41.0299C21.1713 41.1228 20.6483 41.18 19.9495 41.18V43.18C20.7386 43.18 21.4397 43.1172 22.028 42.9701L21.5429 41.0299ZM19.9495 41.18C19.2514 41.18 18.7225 41.1229 18.3403 41.0289L17.8627 42.9711C18.4565 43.1171 19.1596 43.18 19.9495 43.18V41.18ZM18.3403 41.0289C17.9291 40.9278 17.6829 40.8071 17.5458 40.7053L16.3532 42.3107C16.7761 42.6249 17.2979 42.8322 17.8627 42.9711L18.3403 41.0289ZM17.5714 40.7249C17.4264 40.6098 17.3508 40.4972 17.3088 40.3861L15.4382 41.0939C15.6202 41.5748 15.9285 41.9742 16.3276 42.2911L17.5714 40.7249ZM17.3196 40.4163C17.2561 40.2304 17.2175 40.0056 17.2175 39.732H15.2175C15.2175 40.1944 15.2829 40.6416 15.4273 41.0637L17.3196 40.4163ZM17.2175 39.732V35.64H15.2175V39.732H17.2175ZM17.2175 35.64C17.2175 35.3658 17.2562 35.1483 17.3169 34.9755L15.43 34.3125C15.2828 34.7317 15.2175 35.1782 15.2175 35.64H17.2175ZM17.3118 34.9897C17.3558 34.8702 17.4322 34.7576 17.5714 34.6471L16.3276 33.0809C15.9228 33.4024 15.6151 33.8098 15.4351 34.2983L17.3118 34.9897ZM17.5603 34.6558C17.694 34.5527 17.9346 34.4308 18.3403 34.3311L17.8627 32.3889C17.2923 32.5292 16.765 32.7433 16.3387 33.0722L17.5603 34.6558ZM18.3403 34.3311C18.7225 34.2371 19.2514 34.18 19.9495 34.18V32.18C19.1596 32.18 18.4565 32.2429 17.8627 32.3889L18.3403 34.3311ZM19.9495 34.18C20.6483 34.18 21.1713 34.2372 21.5429 34.3301L22.028 32.3899C21.4397 32.2428 20.7386 32.18 19.9495 32.18V34.18ZM21.5467 34.3311C21.9526 34.4309 22.183 34.5513 22.3036 34.6471L23.5474 33.0809C23.124 32.7447 22.5944 32.5291 22.0243 32.3889L21.5467 34.3311ZM22.3147 34.6558C22.4557 34.7645 22.5211 34.8677 22.5553 34.9677L24.4476 34.3203C24.2738 33.8123 23.9553 33.3955 23.5363 33.0722L22.3147 34.6558ZM22.5662 34.9979C22.6291 35.164 22.6695 35.3735 22.6695 35.64H24.6695C24.6695 35.1704 24.5979 34.716 24.4368 34.2901L22.5662 34.9979ZM22.6695 35.64V39.732H24.6695V35.64H22.6695ZM17.9415 39.3C17.9415 39.7452 18.1225 40.1435 18.4392 40.4391L19.8038 38.9769C19.8323 39.0036 19.8714 39.0503 19.9014 39.1184C19.9317 39.187 19.9415 39.2518 19.9415 39.3H17.9415ZM18.4666 40.4637C18.7276 40.6899 19.037 40.7707 19.2333 40.8077C19.4557 40.8496 19.7007 40.864 19.9495 40.864V38.864C19.8609 38.864 19.7876 38.8613 19.728 38.8569C19.6677 38.8525 19.6275 38.8468 19.6036 38.8423C19.5782 38.8375 19.5829 38.8363 19.6073 38.8458C19.6295 38.8546 19.6973 38.8837 19.7764 38.9523L18.4666 40.4637ZM19.9495 40.864C20.1983 40.864 20.4433 40.8496 20.6656 40.8077C20.8619 40.7707 21.1714 40.6899 21.4324 40.4637L20.1226 38.9523C20.2017 38.8837 20.2694 38.8546 20.2917 38.8458C20.316 38.8363 20.3207 38.8375 20.2953 38.8423C20.2715 38.8468 20.2312 38.8525 20.171 38.8569C20.1114 38.8613 20.0381 38.864 19.9495 38.864V40.864ZM21.4598 40.4391C21.7765 40.1435 21.9575 39.7452 21.9575 39.3H19.9575C19.9575 39.2518 19.9673 39.187 19.9976 39.1184C20.0276 39.0503 20.0666 39.0036 20.0952 38.9769L21.4598 40.4391ZM21.9575 39.3V36.072H19.9575V39.3H21.9575ZM21.9575 36.072C21.9575 35.6155 21.7604 35.2166 21.4324 34.9323L20.1226 36.4437C20.0898 36.4153 20.0434 36.3639 20.007 36.2864C19.9702 36.2078 19.9575 36.1315 19.9575 36.072H21.9575ZM21.4598 34.9569C21.1994 34.7139 20.8843 34.6236 20.6793 34.582C20.451 34.5356 20.2009 34.52 19.9495 34.52V36.52C20.0366 36.52 20.108 36.5228 20.1654 36.5274C20.2234 36.532 20.2609 36.5378 20.2816 36.542C20.3038 36.5465 20.2955 36.5469 20.2677 36.5351C20.2412 36.5238 20.1725 36.4912 20.0952 36.4191L21.4598 34.9569ZM19.9495 34.52C19.698 34.52 19.4479 34.5356 19.2196 34.582C19.0147 34.6236 18.6995 34.7139 18.4392 34.9569L19.8038 36.4191C19.7265 36.4912 19.6578 36.5238 19.6313 36.5351C19.6035 36.5469 19.5951 36.5465 19.6173 36.542C19.6381 36.5378 19.6755 36.532 19.7336 36.5274C19.791 36.5228 19.8624 36.52 19.9495 36.52V34.52ZM18.4666 34.9323C18.1386 35.2166 17.9415 35.6155 17.9415 36.072H19.9415C19.9415 36.1315 19.9288 36.2078 19.8919 36.2864C19.8556 36.3639 19.8091 36.4153 19.7764 36.4437L18.4666 34.9323ZM17.9415 36.072V39.3H19.9415V36.072H17.9415ZM27.9091 35.52V34.52H26.9091V35.52H27.9091ZM27.9091 37.056H26.9091V38.056H27.9091V37.056ZM29.2291 36.9L30.0513 37.4692L30.0611 37.4551L30.0703 37.4408L29.2291 36.9ZM29.2291 35.688L28.388 36.2288L28.3972 36.2431L28.4069 36.2572L29.2291 35.688ZM25.2931 41.904L24.5457 42.5684L24.5848 42.6123L24.6288 42.6514L25.2931 41.904ZM25.2931 33.468L24.586 32.7609L24.586 32.7609L25.2931 33.468ZM31.4731 33.924L30.7275 34.5903L30.735 34.5987L30.7426 34.6069L31.4731 33.924ZM31.8331 36.78L30.9156 36.3824L30.9123 36.39L30.9091 36.3976L31.8331 36.78ZM31.3171 37.284L30.9304 36.3618L27.3762 37.8523L31.2067 38.2779L31.3171 37.284ZM32.3611 37.812L31.6061 38.4677L31.611 38.4733L31.6159 38.4788L32.3611 37.812ZM32.6611 41.904L33.3682 42.6111L33.3682 42.6111L32.6611 41.904ZM30.1411 41.904L29.3937 42.5684L29.4328 42.6123L29.4768 42.6514L30.1411 41.904ZM29.9371 39.348L29.1284 39.9362L29.159 39.9783L29.1938 40.017L29.9371 39.348ZM27.9091 39.216V38.216H26.9091V39.216H27.9091ZM27.8011 41.904L27.094 41.1969L27.094 41.1969L27.8011 41.904ZM26.9091 35.52V37.056H28.9091V35.52H26.9091ZM27.9091 38.056H28.8091V36.056H27.9091V38.056ZM28.8091 38.056C29.1315 38.056 29.6972 37.9807 30.0513 37.4692L28.4069 36.3308C28.5074 36.1857 28.6355 36.1117 28.722 36.0796C28.7977 36.0514 28.8375 36.056 28.8091 36.056V38.056ZM30.0703 37.4408C30.2653 37.1375 30.3371 36.8047 30.3371 36.492H28.3371C28.3371 36.4972 28.3365 36.4841 28.3434 36.4581C28.3506 36.4309 28.3644 36.3959 28.388 36.3592L30.0703 37.4408ZM30.3371 36.492V36.084H28.3371V36.492H30.3371ZM30.3371 36.084C30.3371 35.7746 30.2664 35.4295 30.0513 35.1188L28.4069 36.2572C28.3358 36.1545 28.3371 36.0734 28.3371 36.084H30.3371ZM30.0703 35.1472C29.7273 34.6136 29.157 34.52 28.8091 34.52V36.52C28.8309 36.52 28.7825 36.524 28.6988 36.4905C28.6023 36.4519 28.479 36.3704 28.388 36.2288L30.0703 35.1472ZM28.8091 34.52H27.9091V36.52H28.8091V34.52ZM27.4771 41H25.6291V43H27.4771V41ZM25.6291 41C25.6195 41 25.6501 40.9986 25.7059 41.0145C25.7644 41.0312 25.8603 41.0702 25.9575 41.1566L24.6288 42.6514C24.9642 42.9496 25.3669 43 25.6291 43V41ZM26.0405 41.2396C26.1269 41.3368 26.1659 41.4327 26.1827 41.4913C26.1986 41.547 26.1971 41.5777 26.1971 41.568H24.1971C24.1971 41.8302 24.2475 42.2329 24.5457 42.5684L26.0405 41.2396ZM26.1971 41.568V33.792H24.1971V41.568H26.1971ZM26.1971 33.792C26.1971 33.781 26.1989 33.8171 26.1799 33.8811C26.16 33.9484 26.1115 34.0638 26.0002 34.1751L24.586 32.7609C24.2414 33.1055 24.1971 33.5446 24.1971 33.792H26.1971ZM26.0002 34.1751C25.9076 34.2677 25.8088 34.316 25.7371 34.339C25.7027 34.3501 25.6753 34.3552 25.6578 34.3576C25.6403 34.36 25.6302 34.36 25.6291 34.36V32.36C25.3413 32.36 24.9206 32.4263 24.586 32.7609L26.0002 34.1751ZM25.6291 34.36H29.6251V32.36H25.6291V34.36ZM29.6251 34.36C30.4432 34.36 30.6853 34.5431 30.7275 34.5903L32.2188 33.2577C31.589 32.5529 30.5991 32.36 29.6251 32.36V34.36ZM30.7426 34.6069C30.8836 34.7577 30.9891 34.9782 30.9891 35.364H32.9891C32.9891 34.5658 32.7507 33.8263 32.2037 33.2411L30.7426 34.6069ZM30.9891 35.364V35.916H32.9891V35.364H30.9891ZM30.9891 35.916C30.9891 36.1526 30.9521 36.2981 30.9156 36.3824L32.7507 37.1776C32.9222 36.7819 32.9891 36.3514 32.9891 35.916H30.9891ZM30.9091 36.3976C30.9093 36.3972 30.9113 36.3925 30.9161 36.3854C30.921 36.3781 30.927 36.3709 30.9334 36.3646C30.9398 36.3584 30.9444 36.3553 30.9453 36.3546C30.9461 36.3541 30.9418 36.357 30.9304 36.3618L31.7039 38.2062C32.176 38.0082 32.5526 37.6566 32.7572 37.1624L30.9091 36.3976ZM31.2067 38.2779C31.4107 38.3005 31.5206 38.3692 31.6061 38.4677L33.1162 37.1563C32.6737 36.6468 32.0876 36.3635 31.4276 36.2901L31.2067 38.2779ZM31.6159 38.4788C31.6876 38.5589 31.7691 38.7056 31.7691 39.024H33.7691C33.7691 38.3344 33.5787 37.6731 33.1064 37.1452L31.6159 38.4788ZM31.7691 39.024V41.568H33.7691V39.024H31.7691ZM31.7691 41.568C31.7691 41.567 31.7692 41.5569 31.7716 41.5394C31.774 41.5219 31.779 41.4945 31.7901 41.46C31.8132 41.3883 31.8614 41.2895 31.954 41.1969L33.3682 42.6111C33.7028 42.2765 33.7691 41.8558 33.7691 41.568H31.7691ZM31.954 41.1969C32.0653 41.0856 32.1807 41.0371 32.2481 41.0172C32.3121 40.9982 32.3482 41 32.3371 41V43C32.5846 43 33.0236 42.9558 33.3682 42.6111L31.954 41.1969ZM32.3371 41H30.4771V43H32.3371V41ZM30.4771 41C30.4675 41 30.4981 40.9986 30.5539 41.0145C30.6124 41.0312 30.7083 41.0702 30.8055 41.1566L29.4768 42.6514C29.8122 42.9496 30.2149 43 30.4771 43V41ZM30.8885 41.2396C30.9749 41.3368 31.0139 41.4327 31.0307 41.4913C31.0466 41.547 31.0451 41.5777 31.0451 41.568H29.0451C29.0451 41.8302 29.0955 42.2329 29.3937 42.5684L30.8885 41.2396ZM31.0451 41.568V39.732H29.0451V41.568H31.0451ZM31.0451 39.732C31.0451 39.4563 30.9951 39.0287 30.6804 38.679L29.1938 40.017C29.1058 39.9191 29.0695 39.8245 29.0555 39.7747C29.0422 39.7275 29.0451 39.7079 29.0451 39.732H31.0451ZM30.7459 38.7598C30.4086 38.2961 29.8979 38.216 29.5891 38.216V40.216C29.5882 40.216 29.5751 40.216 29.5523 40.2125C29.5295 40.2089 29.4929 40.2012 29.4475 40.184C29.3498 40.147 29.2263 40.0707 29.1284 39.9362L30.7459 38.7598ZM29.5891 38.216H27.9091V40.216H29.5891V38.216ZM26.9091 39.216V41.568H28.9091V39.216H26.9091ZM26.9091 41.568C26.9091 41.567 26.9092 41.5569 26.9116 41.5394C26.914 41.5219 26.919 41.4945 26.9301 41.46C26.9532 41.3883 27.0014 41.2895 27.094 41.1969L28.5082 42.6111C28.8428 42.2765 28.9091 41.8558 28.9091 41.568H26.9091ZM27.094 41.1969C27.2053 41.0856 27.3207 41.0371 27.3881 41.0172C27.4521 40.9982 27.4882 41 27.4771 41V43C27.7246 43 28.1636 42.9558 28.5082 42.6111L27.094 41.1969ZM42.3725 33.468L41.6251 34.1324L41.6642 34.1763L41.7082 34.2154L42.3725 33.468ZM42.4445 39.168L41.4502 39.0615L41.4485 39.0778L41.4472 39.0941L42.4445 39.168ZM42.2645 39.936L43.2031 40.2811L43.2056 40.2743L43.208 40.2675L42.2645 39.936ZM41.6645 41.568L40.7259 41.2229L40.7207 41.2373L40.7158 41.2518L41.6645 41.568ZM41.4845 41.88L40.7446 41.2073L40.7412 41.211L41.4845 41.88ZM39.2405 41.916L39.7146 41.0355L39.7146 41.0355L39.2405 41.916ZM39.0365 41.64L40.0067 41.3975L40.003 41.3829L39.9989 41.3684L39.0365 41.64ZM38.4845 39.684L39.4469 39.4124L39.4447 39.4045L39.4423 39.3967L38.4845 39.684ZM38.3885 39.528L37.6814 40.2351L37.7685 40.3222L37.874 40.3855L38.3885 39.528ZM38.0285 39.528L38.6285 40.328L38.641 40.3186L38.6532 40.3089L38.0285 39.528ZM37.9445 39.684L36.9866 39.3966L36.9837 39.4069L37.9445 39.684ZM37.3805 41.64L36.4197 41.3629L36.4169 41.3726L36.4143 41.3823L37.3805 41.64ZM37.2005 41.916L37.7374 42.7597L37.7636 42.743L37.7887 42.7247L37.2005 41.916ZM34.9565 41.88L34.2838 42.6199L34.2998 42.6344L34.3163 42.6482L34.9565 41.88ZM34.7645 41.568L35.719 41.2697L35.7123 41.2484L35.7047 41.2274L34.7645 41.568ZM34.1645 39.912L33.221 40.2435L33.2243 40.2526L34.1645 39.912ZM33.9725 39.144L32.9751 39.2152L32.9765 39.2349L32.9786 39.2544L33.9725 39.144ZM34.0445 33.468L33.3374 32.7609L33.3374 32.7609L34.0445 33.468ZM36.5525 33.468L35.8051 34.1324L35.8442 34.1763L35.8882 34.2154L36.5525 33.468ZM36.6605 38.208H35.6605L37.5689 38.6261L36.6605 38.208ZM37.3565 36.696L36.4517 36.2702L36.4481 36.2779L37.3565 36.696ZM37.6085 36.408L37.1344 35.5275L37.1344 35.5275L37.6085 36.408ZM38.8805 36.408L38.4064 37.2885L38.4064 37.2885L38.8805 36.408ZM39.1325 36.696L40.0409 36.2778L40.0373 36.2702L39.1325 36.696ZM39.8285 38.208L38.9201 38.6261L40.8285 38.208H39.8285ZM40.2605 34.36H42.0485V32.36H40.2605V34.36ZM42.0485 34.36C42.0476 34.36 42.0365 34.36 42.0171 34.3573C41.9978 34.3546 41.9666 34.3488 41.9273 34.3357C41.8455 34.3084 41.729 34.2493 41.6251 34.1324L43.1199 32.8036C42.7798 32.421 42.3234 32.36 42.0485 32.36V34.36ZM41.7082 34.2154C41.5912 34.1115 41.5321 33.995 41.5048 33.9132C41.4917 33.8739 41.4859 33.8428 41.4832 33.8234C41.4805 33.804 41.4805 33.7929 41.4805 33.792H43.4805C43.4805 33.5171 43.4195 33.0607 43.0369 32.7206L41.7082 34.2154ZM41.4805 33.792V38.448H43.4805V33.792H41.4805ZM41.4805 38.448C41.4805 38.6731 41.4699 38.8772 41.4502 39.0615L43.4388 39.2745C43.4671 39.0108 43.4805 38.7349 43.4805 38.448H41.4805ZM41.4472 39.0941C41.44 39.1926 41.4077 39.358 41.3211 39.6045L43.208 40.2675C43.3294 39.922 43.4171 39.5754 43.4418 39.2419L41.4472 39.0941ZM41.3259 39.5909L40.7259 41.2229L42.6031 41.9131L43.2031 40.2811L41.3259 39.5909ZM40.7158 41.2518C40.716 41.2514 40.718 41.2455 40.7233 41.2363C40.7288 41.2269 40.736 41.2168 40.7446 41.2073L42.2245 42.5527C42.404 42.3552 42.532 42.1277 42.6132 41.8842L40.7158 41.2518ZM40.7412 41.211C40.8078 41.1371 40.892 41.0784 40.9841 41.0415C41.0722 41.0063 41.1448 41 41.1845 41V43C41.5374 43 41.9302 42.8796 42.2278 42.549L40.7412 41.211ZM41.1845 41H39.5885V43H41.1845V41ZM39.5885 41C39.5979 41 39.616 41.0011 39.6402 41.0069C39.6647 41.0128 39.6903 41.0224 39.7146 41.0355L38.7664 42.7965C39.0281 42.9374 39.3092 43 39.5885 43V41ZM39.7146 41.0355C39.788 41.0751 39.8592 41.1342 39.9157 41.2106C39.9705 41.2848 39.9957 41.3537 40.0067 41.3975L38.0664 41.8825C38.1577 42.248 38.3842 42.5907 38.7664 42.7965L39.7146 41.0355ZM39.9989 41.3684L39.4469 39.4124L37.5221 39.9556L38.0741 41.9116L39.9989 41.3684ZM39.4423 39.3967C39.3979 39.2484 39.2715 38.8916 38.903 38.6705L37.874 40.3855C37.7207 40.2935 37.6338 40.179 37.5909 40.1091C37.5481 40.0397 37.5312 39.9863 37.5267 39.9713L39.4423 39.3967ZM39.0956 38.8209C38.8638 38.5891 38.5639 38.48 38.2685 38.48V40.48C38.1798 40.48 38.074 40.4648 37.9631 40.4205C37.8511 40.3757 37.7562 40.3099 37.6814 40.2351L39.0956 38.8209ZM38.2685 38.48H38.1605V40.48H38.2685V38.48ZM38.1605 38.48C37.8696 38.48 37.6084 38.5835 37.4038 38.7471L38.6532 40.3089C38.5287 40.4085 38.3554 40.48 38.1605 40.48V38.48ZM37.4285 38.728C37.1189 38.9602 37.0175 39.294 36.9867 39.3967L38.9023 39.9713C38.9022 39.9718 38.8921 40.0068 38.864 40.0591C38.8393 40.105 38.7703 40.2217 38.6285 40.328L37.4285 38.728ZM36.9837 39.4069L36.4197 41.3629L38.3414 41.9171L38.9054 39.9611L36.9837 39.4069ZM36.4143 41.3823C36.4221 41.3531 36.439 41.3063 36.4739 41.2527C36.5097 41.1978 36.557 41.1475 36.6123 41.1073L37.7887 42.7247C38.0881 42.507 38.2645 42.2062 38.3468 41.8977L36.4143 41.3823ZM36.6636 41.0723C36.7691 41.0052 36.8577 41 36.8765 41V43C37.1514 43 37.4559 42.9388 37.7374 42.7597L36.6636 41.0723ZM36.8765 41H35.2925V43H36.8765V41ZM35.2925 41C35.3344 41 35.3889 41.0069 35.4489 41.0283C35.5091 41.0498 35.559 41.0804 35.5967 41.1118L34.3163 42.6482C34.5968 42.8819 34.9368 43 35.2925 43V41ZM35.6292 41.1401C35.6565 41.1649 35.6783 41.1921 35.6942 41.2179C35.7097 41.2432 35.7166 41.2622 35.719 41.2697L33.81 41.8663C33.8961 42.1418 34.0482 42.4057 34.2838 42.6199L35.6292 41.1401ZM35.7047 41.2274L35.1047 39.5714L33.2243 40.2526L33.8243 41.9086L35.7047 41.2274ZM35.108 39.5805C35.0191 39.3274 34.9792 39.1491 34.9664 39.0336L32.9786 39.2544C33.0138 39.5709 33.102 39.9046 33.2211 40.2435L35.108 39.5805ZM34.97 39.0728C34.9559 38.8755 34.9485 38.6594 34.9485 38.424H32.9485C32.9485 38.7006 32.9571 38.9645 32.9751 39.2152L34.97 39.0728ZM34.9485 38.424V33.792H32.9485V38.424H34.9485ZM34.9485 33.792C34.9485 33.781 34.9503 33.8171 34.9313 33.8811C34.9114 33.9484 34.8629 34.0638 34.7516 34.1751L33.3374 32.7609C32.9928 33.1055 32.9485 33.5446 32.9485 33.792H34.9485ZM34.7516 34.1751C34.659 34.2677 34.5602 34.316 34.4885 34.339C34.4541 34.3501 34.4267 34.3552 34.4091 34.3576C34.3916 34.36 34.3815 34.36 34.3805 34.36V32.36C34.0927 32.36 33.672 32.4263 33.3374 32.7609L34.7516 34.1751ZM34.3805 34.36H36.2285V32.36H34.3805V34.36ZM36.2285 34.36C36.2276 34.36 36.2165 34.36 36.1971 34.3573C36.1778 34.3546 36.1466 34.3488 36.1073 34.3357C36.0255 34.3084 35.909 34.2493 35.8051 34.1324L37.2999 32.8036C36.9598 32.421 36.5034 32.36 36.2285 32.36V34.36ZM35.8882 34.2154C35.7712 34.1115 35.7121 33.995 35.6848 33.9132C35.6717 33.8739 35.6659 33.8428 35.6632 33.8234C35.6605 33.804 35.6605 33.7929 35.6605 33.792H37.6605C37.6605 33.5171 37.5995 33.0607 37.2169 32.7206L35.8882 34.2154ZM35.6605 33.792V38.208H37.6605V33.792H35.6605ZM37.5689 38.6261L38.2649 37.1141L36.4481 36.2779L35.7521 37.7899L37.5689 38.6261ZM38.2613 37.1218C38.2592 37.1264 38.2131 37.2182 38.0826 37.2885L37.1344 35.5275C36.796 35.7098 36.5818 35.9936 36.4517 36.2702L38.2613 37.1218ZM38.0826 37.2885C38.005 37.3302 37.9598 37.324 37.9925 37.324V35.324C37.7212 35.324 37.42 35.3738 37.1344 35.5275L38.0826 37.2885ZM37.9925 37.324H38.4965V35.324H37.9925V37.324ZM38.4965 37.324C38.5292 37.324 38.484 37.3302 38.4064 37.2885L39.3546 35.5275C39.069 35.3738 38.7678 35.324 38.4965 35.324V37.324ZM38.4064 37.2885C38.276 37.2182 38.2298 37.1264 38.2277 37.1218L40.0373 36.2702C39.9072 35.9936 39.6931 35.7098 39.3546 35.5275L38.4064 37.2885ZM38.2241 37.1141L38.9201 38.6261L40.7369 37.7899L40.0409 36.2779L38.2241 37.1141ZM40.8285 38.208V33.792H38.8285V38.208H40.8285ZM40.8285 33.792C40.8285 33.781 40.8303 33.8171 40.8113 33.8811C40.7914 33.9484 40.7429 34.0638 40.6316 34.1751L39.2174 32.7609C38.8728 33.1055 38.8285 33.5446 38.8285 33.792H40.8285ZM40.6316 34.1751C40.539 34.2677 40.4402 34.316 40.3685 34.339C40.3341 34.3501 40.3067 34.3552 40.2891 34.3576C40.2716 34.36 40.2615 34.36 40.2605 34.36V32.36C39.9727 32.36 39.552 32.4263 39.2174 32.7609L40.6316 34.1751ZM47.1612 35.88L46.2474 35.4739L46.2233 35.528L46.2058 35.5846L47.1612 35.88ZM46.5972 37.704L45.6418 37.4086L45.2412 38.704H46.5972V37.704ZM48.4812 37.704V38.704H49.8371L49.4365 37.4086L48.4812 37.704ZM47.9172 35.88L48.8725 35.5846L48.855 35.528L48.831 35.4739L47.9172 35.88ZM47.8092 35.724L47.1021 36.4311L47.1412 36.4703L47.1845 36.5049L47.8092 35.724ZM47.2572 35.724L46.6325 34.9431L46.5892 34.9777L46.5501 35.0169L47.2572 35.724ZM46.3692 41.904L45.6621 41.1969L45.6621 41.1969L46.3692 41.904ZM43.9452 41.904L43.1978 42.5684L43.2368 42.6123L43.2808 42.6514L43.9452 41.904ZM43.9572 37.572L42.9885 37.3236L42.9855 37.3353L42.9828 37.3471L43.9572 37.572ZM44.3172 36.48L45.2505 36.839L45.2509 36.8379L44.3172 36.48ZM45.3612 33.756L46.2949 34.1139L46.2997 34.1014L46.3042 34.0888L45.3612 33.756ZM45.5772 33.456L45.0531 32.6043L45.0376 32.6139L45.0225 32.6239L45.5772 33.456ZM49.5732 33.456L49.0185 34.288L49.0336 34.2981L49.0491 34.3077L49.5732 33.456ZM49.8012 33.756L48.8582 34.0888L48.8626 34.1014L48.8674 34.1139L49.8012 33.756ZM50.8452 36.48L49.9114 36.8379L49.9118 36.839L50.8452 36.48ZM51.1932 37.572L50.2188 37.7969L50.2215 37.8087L50.2245 37.8204L51.1932 37.572ZM51.2052 41.904L51.9123 42.6111L51.9123 42.6111L51.2052 41.904ZM48.7092 41.904L48.0021 42.6111L48.0412 42.6503L48.0845 42.6849L48.7092 41.904ZM48.6012 39.888H49.6012V38.888H48.6012V39.888ZM46.4772 39.888V38.888H45.4772V39.888H46.4772ZM46.2058 35.5846L45.6418 37.4086L47.5525 37.9994L48.1165 36.1754L46.2058 35.5846ZM46.5972 38.704H48.4812V36.704H46.5972V38.704ZM49.4365 37.4086L48.8725 35.5846L46.9618 36.1754L47.5258 37.9994L49.4365 37.4086ZM48.831 35.4739C48.7658 35.3271 48.6482 35.1146 48.4339 34.9431L47.1845 36.5049C47.1134 36.448 47.0688 36.3921 47.044 36.3562C47.019 36.3201 47.0068 36.294 47.0034 36.2861L48.831 35.4739ZM48.5163 35.0169C48.2845 34.7851 47.9845 34.676 47.6892 34.676V36.676C47.6005 36.676 47.4947 36.6608 47.3838 36.6165C47.2717 36.5717 47.1769 36.5059 47.1021 36.4311L48.5163 35.0169ZM47.6892 34.676H47.3892V36.676H47.6892V34.676ZM47.3892 34.676C47.0983 34.676 46.837 34.7795 46.6325 34.9431L47.8819 36.5049C47.7573 36.6045 47.5841 36.676 47.3892 36.676V34.676ZM46.5501 35.0169C46.3897 35.1773 46.2979 35.3602 46.2474 35.4739L48.075 36.2861C48.0778 36.2798 48.0737 36.2902 48.0608 36.3111C48.0491 36.3301 48.0188 36.3766 47.9643 36.4311L46.5501 35.0169ZM45.4772 41.568C45.4772 41.567 45.4772 41.5569 45.4796 41.5394C45.482 41.5219 45.4871 41.4945 45.4981 41.46C45.5212 41.3883 45.5694 41.2895 45.6621 41.1969L47.0763 42.6111C47.4109 42.2765 47.4772 41.8558 47.4772 41.568H45.4772ZM45.6621 41.1969C45.7733 41.0856 45.8888 41.0371 45.9561 41.0172C46.0201 40.9982 46.0562 41 46.0452 41V43C46.2926 43 46.7316 42.9558 47.0763 42.6111L45.6621 41.1969ZM46.0452 41H44.2812V43H46.0452V41ZM44.2812 41C44.2715 41 44.3022 40.9986 44.3579 41.0145C44.4165 41.0312 44.5124 41.0702 44.6095 41.1566L43.2808 42.6514C43.6163 42.9496 44.0189 43 44.2812 43V41ZM44.6926 41.2396C44.779 41.3368 44.818 41.4327 44.8347 41.4913C44.8506 41.547 44.8492 41.5777 44.8492 41.568H42.8492C42.8492 41.8302 42.8996 42.2329 43.1978 42.5684L44.6926 41.2396ZM44.8492 41.568V38.4H42.8492V41.568H44.8492ZM44.8492 38.4C44.8492 38.256 44.8713 38.058 44.9316 37.7969L42.9828 37.3471C42.899 37.71 42.8492 38.064 42.8492 38.4H44.8492ZM44.9258 37.8204C44.9934 37.557 45.0996 37.2314 45.2505 36.839L43.3838 36.121C43.2148 36.5606 43.081 36.963 42.9885 37.3236L44.9258 37.8204ZM45.2509 36.8379L46.2949 34.1139L44.4274 33.3981L43.3834 36.1221L45.2509 36.8379ZM46.3042 34.0888C46.2984 34.1051 46.2568 34.2048 46.1319 34.2881L45.0225 32.6239C44.7056 32.8352 44.5199 33.1349 44.4182 33.4232L46.3042 34.0888ZM46.1013 34.3077C46.0058 34.3664 45.9421 34.36 45.9732 34.36V32.36C45.6843 32.36 45.3565 32.4176 45.0531 32.6043L46.1013 34.3077ZM45.9732 34.36H49.2012V32.36H45.9732V34.36ZM49.2012 34.36C49.2174 34.36 49.1315 34.3634 49.0185 34.288L50.1279 32.624C49.8229 32.4206 49.4889 32.36 49.2012 32.36V34.36ZM49.0491 34.3077C48.9929 34.2731 48.9465 34.2295 48.912 34.1841C48.8787 34.1403 48.8637 34.1044 48.8582 34.0888L50.7442 33.4232C50.6344 33.1122 50.43 32.8091 50.0973 32.6043L49.0491 34.3077ZM48.8674 34.1139L49.9114 36.8379L51.7789 36.1221L50.7349 33.3981L48.8674 34.1139ZM49.9118 36.839C50.061 37.2268 50.1605 37.5442 50.2188 37.7969L52.1676 37.3471C52.0819 36.9758 51.9493 36.5652 51.7785 36.121L49.9118 36.839ZM50.2245 37.8204C50.2903 38.077 50.3132 38.2667 50.3132 38.4H52.3132C52.3132 38.0533 52.256 37.691 52.1618 37.3236L50.2245 37.8204ZM50.3132 38.4V41.568H52.3132V38.4H50.3132ZM50.3132 41.568C50.3132 41.567 50.3132 41.5569 50.3156 41.5394C50.318 41.5219 50.3231 41.4945 50.3341 41.46C50.3572 41.3883 50.4054 41.2895 50.4981 41.1969L51.9123 42.6111C52.2469 42.2765 52.3132 41.8558 52.3132 41.568H50.3132ZM50.4981 41.1969C50.6093 41.0856 50.7248 41.0371 50.7921 41.0172C50.8561 40.9982 50.8922 41 50.8812 41V43C51.1286 43 51.5676 42.9558 51.9123 42.6111L50.4981 41.1969ZM50.8812 41H49.0692V43H50.8812V41ZM49.0692 41C49.0526 41 49.0727 40.998 49.1168 41.0098C49.1629 41.022 49.2453 41.0523 49.3339 41.1231L48.0845 42.6849C48.4171 42.951 48.8023 43 49.0692 43V41ZM49.4163 41.1969C49.5089 41.2895 49.5572 41.3883 49.5802 41.46C49.5913 41.4945 49.5964 41.5219 49.5988 41.5394C49.6011 41.5569 49.6012 41.567 49.6012 41.568H47.6012C47.6012 41.8558 47.6675 42.2765 48.0021 42.6111L49.4163 41.1969ZM49.6012 41.568V39.888H47.6012V41.568H49.6012ZM48.6012 38.888H46.4772V40.888H48.6012V38.888ZM45.4772 39.888V41.568H47.4772V39.888H45.4772ZM55.5068 35.52V34.52H54.5068V35.52H55.5068ZM55.5068 37.056H54.5068V38.056H55.5068V37.056ZM56.8268 36.9L57.649 37.4692L57.6587 37.4551L57.668 37.4408L56.8268 36.9ZM56.8268 35.688L55.9856 36.2288L55.9949 36.2431L56.0046 36.2572L56.8268 35.688ZM52.8908 41.904L52.1434 42.5684L52.1825 42.6123L52.2264 42.6514L52.8908 41.904ZM52.8908 33.468L52.1837 32.7609L52.1837 32.7609L52.8908 33.468ZM59.0708 33.924L58.3251 34.5903L58.3326 34.5987L58.3403 34.6069L59.0708 33.924ZM59.4308 36.78L58.5132 36.3824L58.5099 36.39L58.5068 36.3976L59.4308 36.78ZM58.9148 37.284L58.5281 36.3618L54.9739 37.8523L58.8044 38.2779L58.9148 37.284ZM59.9588 37.812L59.2038 38.4677L59.2086 38.4733L59.2136 38.4788L59.9588 37.812ZM60.2588 41.904L60.9659 42.6111L60.9659 42.6111L60.2588 41.904ZM57.7388 41.904L56.9914 42.5684L57.0305 42.6123L57.0744 42.6514L57.7388 41.904ZM57.5348 39.348L56.7261 39.9362L56.7567 39.9783L56.7915 40.017L57.5348 39.348ZM55.5068 39.216V38.216H54.5068V39.216H55.5068ZM55.3988 41.904L54.6917 41.1969L54.6917 41.1969L55.3988 41.904ZM54.5068 35.52V37.056H56.5068V35.52H54.5068ZM55.5068 38.056H56.4068V36.056H55.5068V38.056ZM56.4068 38.056C56.7292 38.056 57.2949 37.9807 57.649 37.4692L56.0046 36.3308C56.105 36.1857 56.2332 36.1117 56.3196 36.0796C56.3954 36.0514 56.4352 36.056 56.4068 36.056V38.056ZM57.668 37.4408C57.863 37.1375 57.9348 36.8047 57.9348 36.492H55.9348C55.9348 36.4972 55.9342 36.4841 55.9411 36.4581C55.9483 36.4309 55.962 36.3959 55.9856 36.3592L57.668 37.4408ZM57.9348 36.492V36.084H55.9348V36.492H57.9348ZM57.9348 36.084C57.9348 35.7746 57.8641 35.4295 57.649 35.1188L56.0046 36.2572C55.9335 36.1545 55.9348 36.0734 55.9348 36.084H57.9348ZM57.668 35.1472C57.325 34.6136 56.7546 34.52 56.4068 34.52V36.52C56.4286 36.52 56.3801 36.524 56.2964 36.4905C56.1999 36.4519 56.0767 36.3704 55.9856 36.2288L57.668 35.1472ZM56.4068 34.52H55.5068V36.52H56.4068V34.52ZM55.0748 41H53.2268V43H55.0748V41ZM53.2268 41C53.2171 41 53.2478 40.9986 53.3035 41.0145C53.3621 41.0312 53.458 41.0702 53.5552 41.1566L52.2264 42.6514C52.5619 42.9496 52.9646 43 53.2268 43V41ZM53.6382 41.2396C53.7246 41.3368 53.7636 41.4327 53.7803 41.4913C53.7962 41.547 53.7948 41.5777 53.7948 41.568H51.7948C51.7948 41.8302 51.8452 42.2329 52.1434 42.5684L53.6382 41.2396ZM53.7948 41.568V33.792H51.7948V41.568H53.7948ZM53.7948 33.792C53.7948 33.781 53.7966 33.8171 53.7776 33.8811C53.7576 33.9484 53.7092 34.0638 53.5979 34.1751L52.1837 32.7609C51.839 33.1055 51.7948 33.5446 51.7948 33.792H53.7948ZM53.5979 34.1751C53.5053 34.2677 53.4065 34.316 53.3348 34.339C53.3003 34.3501 53.2729 34.3552 53.2554 34.3576C53.2379 34.36 53.2278 34.36 53.2268 34.36V32.36C52.939 32.36 52.5183 32.4263 52.1837 32.7609L53.5979 34.1751ZM53.2268 34.36H57.2228V32.36H53.2268V34.36ZM57.2228 34.36C58.0408 34.36 58.2829 34.5431 58.3251 34.5903L59.8165 33.2577C59.1867 32.5529 58.1968 32.36 57.2228 32.36V34.36ZM58.3403 34.6069C58.4813 34.7577 58.5868 34.9782 58.5868 35.364H60.5868C60.5868 34.5658 60.3483 33.8263 59.8013 33.2411L58.3403 34.6069ZM58.5868 35.364V35.916H60.5868V35.364H58.5868ZM58.5868 35.916C58.5868 36.1526 58.5497 36.2981 58.5132 36.3824L60.3484 37.1776C60.5198 36.7819 60.5868 36.3514 60.5868 35.916H58.5868ZM58.5068 36.3976C58.507 36.3972 58.509 36.3925 58.5138 36.3854C58.5186 36.3781 58.5246 36.3709 58.5311 36.3646C58.5374 36.3584 58.542 36.3553 58.543 36.3546C58.5437 36.3541 58.5395 36.357 58.5281 36.3618L59.3015 38.2062C59.7737 38.0082 60.1503 37.6566 60.3548 37.1624L58.5068 36.3976ZM58.8044 38.2779C59.0083 38.3005 59.1183 38.3692 59.2038 38.4677L60.7138 37.1563C60.2713 36.6468 59.6853 36.3635 59.0252 36.2901L58.8044 38.2779ZM59.2136 38.4788C59.2852 38.5589 59.3668 38.7056 59.3668 39.024H61.3668C61.3668 38.3344 61.1764 37.6731 60.704 37.1452L59.2136 38.4788ZM59.3668 39.024V41.568H61.3668V39.024H59.3668ZM59.3668 41.568C59.3668 41.567 59.3668 41.5569 59.3692 41.5394C59.3716 41.5219 59.3767 41.4945 59.3878 41.46C59.4108 41.3883 59.4591 41.2895 59.5517 41.1969L60.9659 42.6111C61.3005 42.2765 61.3668 41.8558 61.3668 41.568H59.3668ZM59.5517 41.1969C59.663 41.0856 59.7784 41.0371 59.8457 41.0172C59.9097 40.9982 59.9458 41 59.9348 41V43C60.1822 43 60.6213 42.9558 60.9659 42.6111L59.5517 41.1969ZM59.9348 41H58.0748V43H59.9348V41ZM58.0748 41C58.0651 41 58.0958 40.9986 58.1515 41.0145C58.2101 41.0312 58.306 41.0702 58.4032 41.1566L57.0744 42.6514C57.4099 42.9496 57.8126 43 58.0748 43V41ZM58.4862 41.2396C58.5726 41.3368 58.6116 41.4327 58.6283 41.4913C58.6442 41.547 58.6428 41.5777 58.6428 41.568H56.6428C56.6428 41.8302 56.6932 42.2329 56.9914 42.5684L58.4862 41.2396ZM58.6428 41.568V39.732H56.6428V41.568H58.6428ZM58.6428 39.732C58.6428 39.4563 58.5928 39.0287 58.2781 38.679L56.7915 40.017C56.7035 39.9191 56.6671 39.8245 56.6531 39.7747C56.6399 39.7275 56.6428 39.7079 56.6428 39.732H58.6428ZM58.3435 38.7598C58.0063 38.2961 57.4955 38.216 57.1868 38.216V40.216C57.1859 40.216 57.1727 40.216 57.1499 40.2125C57.1271 40.2089 57.0906 40.2012 57.0451 40.184C56.9475 40.147 56.8239 40.0707 56.7261 39.9362L58.3435 38.7598ZM57.1868 38.216H55.5068V40.216H57.1868V38.216ZM54.5068 39.216V41.568H56.5068V39.216H54.5068ZM54.5068 41.568C54.5068 41.567 54.5068 41.5569 54.5092 41.5394C54.5116 41.5219 54.5167 41.4945 54.5278 41.46C54.5508 41.3883 54.5991 41.2895 54.6917 41.1969L56.1059 42.6111C56.4405 42.2765 56.5068 41.8558 56.5068 41.568H54.5068ZM54.6917 41.1969C54.803 41.0856 54.9184 41.0371 54.9857 41.0172C55.0497 40.9982 55.0858 41 55.0748 41V43C55.3222 43 55.7613 42.9558 56.1059 42.6111L54.6917 41.1969ZM61.8088 41.904L61.0614 42.5684L61.1004 42.6123L61.1444 42.6514L61.8088 41.904ZM61.8088 33.468L61.1017 32.7609L61.1017 32.7609L61.8088 33.468ZM68.4088 33.96L67.7686 34.7282L67.7748 34.7334L68.4088 33.96ZM68.4088 41.4L67.7748 40.6266L67.7686 40.6318L68.4088 41.4ZM64.4368 35.652V34.652H63.4368V35.652H64.4368ZM64.4368 39.732H63.4368V40.732H64.4368V39.732ZM66.2848 39.588L65.5777 38.8809L65.5623 38.8963L65.5476 38.9123L66.2848 39.588ZM66.2848 35.796L65.5476 36.4717L65.577 36.5038L65.609 36.5332L66.2848 35.796ZM66.1888 41H62.1448V43H66.1888V41ZM62.1448 41C62.1351 41 62.1657 40.9986 62.2215 41.0145C62.2801 41.0312 62.3759 41.0702 62.4731 41.1566L61.1444 42.6514C61.4799 42.9496 61.8825 43 62.1448 43V41ZM62.5562 41.2396C62.6426 41.3368 62.6816 41.4327 62.6983 41.4913C62.7142 41.547 62.7128 41.5777 62.7128 41.568H60.7128C60.7128 41.8302 60.7632 42.2329 61.0614 42.5684L62.5562 41.2396ZM62.7128 41.568V33.792H60.7128V41.568H62.7128ZM62.7128 33.792C62.7128 33.781 62.7145 33.8171 62.6956 33.8811C62.6756 33.9484 62.6271 34.0638 62.5159 34.1751L61.1017 32.7609C60.757 33.1055 60.7128 33.5446 60.7128 33.792H62.7128ZM62.5159 34.1751C62.4232 34.2677 62.3245 34.316 62.2528 34.339C62.2183 34.3501 62.1909 34.3552 62.1734 34.3576C62.1559 34.36 62.1458 34.36 62.1448 34.36V32.36C61.8569 32.36 61.4363 32.4263 61.1017 32.7609L62.5159 34.1751ZM62.1448 34.36H66.1888V32.36H62.1448V34.36ZM66.1888 34.36C67.0866 34.36 67.5486 34.5449 67.7686 34.7282L69.049 33.1918C68.3089 32.5751 67.291 32.36 66.1888 32.36V34.36ZM67.7748 34.7334C67.9622 34.8869 68.1408 35.1733 68.1408 35.808H70.1408C70.1408 34.7787 69.8314 33.8331 69.0427 33.1866L67.7748 34.7334ZM68.1408 35.808V39.552H70.1408V35.808H68.1408ZM68.1408 39.552C68.1408 40.1867 67.9622 40.4731 67.7748 40.6266L69.0427 42.1734C69.8314 41.5269 70.1408 40.5813 70.1408 39.552H68.1408ZM67.7686 40.6318C67.5486 40.8151 67.0866 41 66.1888 41V43C67.291 43 68.3089 42.7849 69.049 42.1682L67.7686 40.6318ZM63.4368 35.652V39.732H65.4368V35.652H63.4368ZM64.4368 40.732H65.8648V38.732H64.4368V40.732ZM65.8648 40.732C66.203 40.732 66.6697 40.6479 67.0219 40.2637L65.5476 38.9123C65.7238 38.7201 65.9106 38.732 65.8648 38.732V40.732ZM66.9919 40.2951C67.3483 39.9387 67.4288 39.4843 67.4288 39.144H65.4288C65.4288 39.2037 65.4132 39.0453 65.5777 38.8809L66.9919 40.2951ZM67.4288 39.144V36.228H65.4288V39.144H67.4288ZM67.4288 36.228C67.4288 35.8967 67.352 35.4177 66.9605 35.0588L65.609 36.5332C65.5124 36.4446 65.4649 36.3486 65.4441 36.2862C65.4252 36.2297 65.4288 36.2034 65.4288 36.228H67.4288ZM67.0219 35.1203C66.6697 34.7361 66.203 34.652 65.8648 34.652V36.652C65.9106 36.652 65.7238 36.6639 65.5476 36.4717L67.0219 35.1203ZM65.8648 34.652H64.4368V36.652H65.8648V34.652Z" fill="black"/>
<defs>
<linearGradient id="paint0_linear_49_30" x1="39" y1="2" x2="39" y2="96" gradientUnits="userSpaceOnUse">
<stop offset="0.341545" stop-color="#C7C7C7"/>
<stop offset="0.384075" stop-color="#C7C7C7"/>
<stop offset="1" stop-color="#C6C6C6" stop-opacity="0"/>
</linearGradient>
</defs>
</svg>
