<svg width="834" height="303" viewBox="0 0 1034 403" fill="none" xmlns="http://www.w3.org/2000/svg">
<g clip-path="url(#clip0_5_190)">
<rect x="239" y="132" width="608" height="271" fill="#E9E8E8"/>
<rect x="449" y="204" width="348" height="137" fill="#5C97EE"/>
<rect x="685" y="216" width="100" height="113" fill="#A5C5F5"/>
<path d="M697 254L714.5 223.689" stroke="#CBE0FF" stroke-width="4" stroke-linecap="round"/>
<path d="M698 267L710.5 245.349" stroke="#CBE0FF" stroke-width="4" stroke-linecap="round"/>
<path d="M713 240L717 233.072" stroke="#CBE0FF" stroke-width="4" stroke-linecap="round"/>
<rect x="573" y="216" width="100" height="113" fill="#A5C5F5"/>
<path d="M585 254L602.5 223.689" stroke="#CBE0FF" stroke-width="4" stroke-linecap="round"/>
<path d="M586 267L598.5 245.349" stroke="#CBE0FF" stroke-width="4" stroke-linecap="round"/>
<path d="M601 240L605 233.072" stroke="#CBE0FF" stroke-width="4" stroke-linecap="round"/>
<rect x="461" y="216" width="100" height="113" fill="#A5C5F5"/>
<path d="M473 254L490.5 223.689" stroke="#CBE0FF" stroke-width="4" stroke-linecap="round"/>
<path d="M474 267L486.5 245.349" stroke="#CBE0FF" stroke-width="4" stroke-linecap="round"/>
<path d="M489 240L493 233.072" stroke="#CBE0FF" stroke-width="4" stroke-linecap="round"/>
<rect x="356" y="204" width="93" height="199" fill="#5C97EE"/>
<rect x="368" y="241" width="33" height="162" fill="#A5C5F5"/>
<rect x="404" y="241" width="33" height="162" fill="#A5C5F5"/>
<path d="M375 261L382.5 248.01" stroke="#CBE0FF" stroke-width="4" stroke-linecap="round"/>
<path d="M382 261L385 255.804" stroke="#CBE0FF" stroke-width="4" stroke-linecap="round"/>
<path d="M420 395L427.5 382.01" stroke="#CBE0FF" stroke-width="4" stroke-linecap="round"/>
<path d="M427 395L430 389.804" stroke="#CBE0FF" stroke-width="4" stroke-linecap="round"/>
<path d="M259 189H797V204H259V189Z" fill="#70C153"/>
<rect x="259" y="204" width="77" height="137" fill="#527B52"/>
<rect x="271" y="227" width="30" height="8" fill="#ECFF76"/>
<rect x="271" y="216" width="30" height="8" fill="#ECFF76"/>
<rect x="271" y="238" width="30" height="8" fill="#ECFF76"/>
<rect x="271" y="249" width="30" height="8" fill="#ECFF76"/>
<rect x="305" y="216" width="19" height="8" fill="#E8AD3B"/>
<rect x="305" y="227" width="19" height="8" fill="#E8AD3B"/>
<rect x="305" y="238" width="19" height="8" fill="#E8AD3B"/>
<rect x="305" y="249" width="19" height="8" fill="#E8AD3B"/>
<rect x="892" y="66" width="52" height="337" fill="#CDCCCC"/>
<rect x="892" y="66" width="52" height="20" fill="#918F8F"/>
<rect x="867" y="387" width="102" height="16" fill="#918F8F"/>
<rect x="872" y="298" width="20" height="89" fill="#E9E8E8"/>
<rect x="872" y="310" width="12" height="7" fill="#70C153"/>
<path d="M872 313C866.696 313 861.609 316.635 857.858 323.105C854.107 329.575 852 338.35 852 347.5C852 356.65 854.107 365.425 857.858 371.895C861.609 378.365 866.696 382 872 382L872 378.55C867.226 378.55 862.648 375.279 859.272 369.456C855.896 363.633 854 355.735 854 347.5C854 339.265 855.896 331.367 859.272 325.544C862.648 319.721 867.226 316.45 872 316.45L872 313Z" fill="#757373"/>
<path d="M856 325L863 324V335H853L856 325Z" fill="#E8AD3B"/>
<rect x="860" y="326" width="2" height="7" fill="white"/>
<rect x="944" y="298" width="20" height="89" fill="#E9E8E8"/>
<rect x="952" y="310" width="12" height="7" fill="#70C153"/>
<path d="M964 382C969.304 382 974.391 378.365 978.142 371.895C981.893 365.425 984 356.65 984 347.5C984 338.35 981.893 329.575 978.142 323.105C974.391 316.635 969.304 313 964 313L964 316.45C968.774 316.45 973.352 319.721 976.728 325.544C980.104 331.367 982 339.265 982 347.5C982 355.735 980.104 363.633 976.728 369.456C973.352 375.279 968.774 378.55 964 378.55L964 382Z" fill="#757373"/>
<path d="M983 335H973V324L980 325L983 335Z" fill="#E8AD3B"/>
<rect x="976" y="333" width="2" height="7" transform="rotate(-180 976 333)" fill="white"/>
<rect x="90" y="66" width="52" height="337" fill="#CDCCCC"/>
<rect x="90" y="66" width="52" height="20" fill="#918F8F"/>
<rect x="65" y="387" width="102" height="16" fill="#918F8F"/>
<rect x="70" y="298" width="20" height="89" fill="#E9E8E8"/>
<rect x="70" y="310" width="12" height="7" fill="#70C153"/>
<path d="M70 313C64.6957 313 59.6086 316.635 55.8579 323.105C52.1071 329.575 50 338.35 50 347.5C50 356.65 52.1071 365.425 55.8579 371.895C59.6086 378.365 64.6957 382 70 382L70 378.55C65.2261 378.55 60.6477 375.279 57.2721 369.456C53.8964 363.633 52 355.735 52 347.5C52 339.265 53.8964 331.367 57.2721 325.544C60.6477 319.721 65.2261 316.45 70 316.45L70 313Z" fill="#757373"/>
<path d="M54 325L61 324V335H51L54 325Z" fill="#E8AD3B"/>
<rect x="58" y="326" width="2" height="7" fill="white"/>
<rect x="142" y="298" width="20" height="89" fill="#E9E8E8"/>
<rect x="150" y="310" width="12" height="7" fill="#70C153"/>
<path d="M162 382C167.304 382 172.391 378.365 176.142 371.895C179.893 365.425 182 356.65 182 347.5C182 338.35 179.893 329.575 176.142 323.105C172.391 316.635 167.304 313 162 313L162 316.45C166.774 316.45 171.352 319.721 174.728 325.544C178.104 331.367 180 339.265 180 347.5C180 355.735 178.104 363.633 174.728 369.456C171.352 375.279 166.774 378.55 162 378.55L162 382Z" fill="#757373"/>
<path d="M181 335H171V324L178 325L181 335Z" fill="#E8AD3B"/>
<rect x="174" y="333" width="2" height="7" transform="rotate(-180 174 333)" fill="white"/>
<rect x="491" y="66" width="52" height="337" fill="#CDCCCC"/>
<rect x="491" y="66" width="52" height="20" fill="#918F8F"/>
<rect x="466" y="387" width="102" height="16" fill="#918F8F"/>
<rect x="471" y="298" width="20" height="89" fill="#E9E8E8"/>
<rect x="471" y="310" width="12" height="7" fill="#70C153"/>
<path d="M471 313C465.696 313 460.609 316.635 456.858 323.105C453.107 329.575 451 338.35 451 347.5C451 356.65 453.107 365.425 456.858 371.895C460.609 378.365 465.696 382 471 382L471 378.55C466.226 378.55 461.648 375.279 458.272 369.456C454.896 363.633 453 355.735 453 347.5C453 339.265 454.896 331.367 458.272 325.544C461.648 319.721 466.226 316.45 471 316.45L471 313Z" fill="#757373"/>
<path d="M455 325L462 324V335H452L455 325Z" fill="#E8AD3B"/>
<rect x="459" y="326" width="2" height="7" fill="white"/>
<rect x="543" y="298" width="20" height="89" fill="#E9E8E8"/>
<rect x="551" y="310" width="12" height="7" fill="#70C153"/>
<path d="M563 382C568.304 382 573.391 378.365 577.142 371.895C580.893 365.425 583 356.65 583 347.5C583 338.35 580.893 329.575 577.142 323.105C573.391 316.635 568.304 313 563 313L563 316.45C567.774 316.45 572.352 319.721 575.728 325.544C579.104 331.367 581 339.265 581 347.5C581 355.735 579.104 363.633 575.728 369.456C572.352 375.279 567.774 378.55 563 378.55L563 382Z" fill="#757373"/>
<path d="M582 335H572V324L579 325L582 335Z" fill="#E8AD3B"/>
<rect x="575" y="333" width="2" height="7" transform="rotate(-180 575 333)" fill="white"/>
<rect width="1034" height="65" fill="#70C153"/>
<rect width="1034" height="10" transform="matrix(1 0 0 -1 0 66)" fill="#527B52"/>
<path d="M879.688 41V14.8182H890.989C892.932 14.8182 894.632 15.2017 896.089 15.9688C897.547 16.7358 898.68 17.8139 899.49 19.2031C900.3 20.5923 900.705 22.2159 900.705 24.0739C900.705 25.9489 900.287 27.5724 899.452 28.9446C898.625 30.3168 897.462 31.3736 895.962 32.1151C894.47 32.8565 892.727 33.2273 890.733 33.2273H883.983V27.7045H889.301C890.136 27.7045 890.848 27.5597 891.436 27.2699C892.033 26.9716 892.489 26.5497 892.804 26.0043C893.128 25.4588 893.29 24.8153 893.29 24.0739C893.29 23.3239 893.128 22.6847 892.804 22.1562C892.489 21.6193 892.033 21.2102 891.436 20.929C890.848 20.6392 890.136 20.4943 889.301 20.4943H886.795V41H879.688ZM903.312 41V14.8182H922.182V20.5455H910.42V25.0455H921.21V30.7727H910.42V35.2727H922.131V41H903.312ZM924.991 20.5455V14.8182H947.747V20.5455H939.872V41H932.866V20.5455H924.991ZM950.422 41V14.8182H961.723C963.666 14.8182 965.366 15.1719 966.824 15.8793C968.281 16.5866 969.415 17.6051 970.224 18.9347C971.034 20.2642 971.439 21.858 971.439 23.7159C971.439 25.5909 971.021 27.1719 970.186 28.4588C969.359 29.7457 968.196 30.7173 966.696 31.3736C965.205 32.0298 963.462 32.358 961.467 32.358H954.717V26.8352H960.036C960.871 26.8352 961.582 26.733 962.17 26.5284C962.767 26.3153 963.223 25.9787 963.538 25.5185C963.862 25.0582 964.024 24.4574 964.024 23.7159C964.024 22.9659 963.862 22.3565 963.538 21.8878C963.223 21.4105 962.767 21.0611 962.17 20.8395C961.582 20.6094 960.871 20.4943 960.036 20.4943H957.53V41H950.422ZM965.763 28.983L972.308 41H964.587L958.195 28.983H965.763ZM999.832 27.9091C999.832 30.8239 999.266 33.2827 998.132 35.2855C996.999 37.2798 995.469 38.7926 993.543 39.8239C991.616 40.8466 989.469 41.358 987.099 41.358C984.713 41.358 982.557 40.8423 980.631 39.8111C978.713 38.7713 977.188 37.2543 976.054 35.2599C974.929 33.2571 974.366 30.8068 974.366 27.9091C974.366 24.9943 974.929 22.5398 976.054 20.5455C977.188 18.5426 978.713 17.0298 980.631 16.0071C982.557 14.9759 984.713 14.4602 987.099 14.4602C989.469 14.4602 991.616 14.9759 993.543 16.0071C995.469 17.0298 996.999 18.5426 998.132 20.5455C999.266 22.5398 999.832 24.9943 999.832 27.9091ZM992.52 27.9091C992.52 26.3409 992.311 25.0199 991.893 23.946C991.484 22.8636 990.875 22.0455 990.065 21.4915C989.264 20.929 988.276 20.6477 987.099 20.6477C985.923 20.6477 984.93 20.929 984.121 21.4915C983.32 22.0455 982.71 22.8636 982.293 23.946C981.884 25.0199 981.679 26.3409 981.679 27.9091C981.679 29.4773 981.884 30.8026 982.293 31.8849C982.71 32.9588 983.32 33.777 984.121 34.3395C984.93 34.8935 985.923 35.1705 987.099 35.1705C988.276 35.1705 989.264 34.8935 990.065 34.3395C990.875 33.777 991.484 32.9588 991.893 31.8849C992.311 30.8026 992.52 29.4773 992.52 27.9091ZM1003.12 41V14.8182H1010.23V35.2727H1020.81V41H1003.12Z" fill="white"/>
</g>
<defs>
<clipPath id="clip0_5_190">
<rect width="1034" height="403" fill="white"/>
</clipPath>
</defs>
</svg>
