<svg width="226" height="327" viewBox="0 0 226 327" fill="none" xmlns="http://www.w3.org/2000/svg">
<g clip-path="url(#clip0_1_2)">
<path d="M69.9844 140.813C77.4844 126.313 101.984 172.313 114.984 177.813C127.984 183.313 141.484 132.313 146.984 139.813C152.484 147.313 122.484 241.813 119.984 261.813C117.484 281.813 125.484 326.813 125.484 326.813H95.4844C95.4844 326.813 124.41 248.722 108.984 202.313C100.014 175.326 62.4844 155.313 69.9844 140.813Z" fill="#885F39"/>
<path d="M64.9844 140.813C72.4844 126.313 96.9845 172.313 109.984 177.813C122.984 183.313 136.484 132.313 141.984 139.813C147.484 147.313 117.484 241.813 114.984 261.813C112.484 281.813 120.484 326.813 120.484 326.813H90.4844C90.4844 326.813 119.41 248.722 103.984 202.313C95.0143 175.326 57.4844 155.313 64.9844 140.813Z" fill="#A9794D"/>
<path fill-rule="evenodd" clip-rule="evenodd" d="M93.7552 140.545C83.886 151.276 69.7282 158 54 158C24.1766 158 0 133.823 0 104C0 75.5219 22.0446 52.1927 50.0002 50.1459C50.0001 50.0973 50 50.0486 50 50C50 22.3858 72.3858 0 100 0C125.255 0 146.137 18.7242 149.521 43.0477C188.713 44.287 220 69.5351 220 100.5C220 132.256 187.093 158 146.5 158C125.808 158 107.112 151.311 93.7552 140.545Z" fill="#70C153"/>
<path fill-rule="evenodd" clip-rule="evenodd" d="M93.7552 149.545C83.886 160.276 69.7282 167 54 167C24.1766 167 0 142.823 0 113C0 84.5219 22.0446 61.1927 50.0002 59.1459C50.0001 59.0973 50 59.0486 50 59C50 31.3858 72.3858 9 100 9C125.255 9 146.137 27.7242 149.521 52.0477C188.713 53.287 220 78.5351 220 109.5C220 141.256 187.093 167 146.5 167C125.808 167 107.112 160.311 93.7552 149.545Z" fill="#9BF471"/>
<path d="M124.019 145.303C129.761 149.904 136.448 153.182 143.603 154.901C150.758 156.62 158.204 156.739 165.41 155.248C172.616 153.758 179.404 150.696 185.29 146.28C191.176 141.864 196.015 136.204 199.461 129.702L197.145 128.474C193.879 134.635 189.294 139.998 183.717 144.183C178.139 148.367 171.707 151.269 164.879 152.681C158.051 154.093 150.995 153.98 144.216 152.351C137.436 150.722 131.099 147.617 125.658 143.257L124.019 145.303Z" fill="#70C153"/>
</g>
<defs>
<clipPath id="clip0_1_2">
<rect width="226" height="327" fill="white"/>
</clipPath>
</defs>
</svg>
